<?xml version="1.0" encoding="UTF-8" standalone="no"?>
<!-- Created with Inkscape (http://www.inkscape.org/) -->

<svg
   xmlns:dc="http://purl.org/dc/elements/1.1/"
   xmlns:cc="http://creativecommons.org/ns#"
   xmlns:rdf="http://www.w3.org/1999/02/22-rdf-syntax-ns#"
   xmlns:svg="http://www.w3.org/2000/svg"
   xmlns="http://www.w3.org/2000/svg"
   xmlns:sodipodi="http://sodipodi.sourceforge.net/DTD/sodipodi-0.dtd"
   xmlns:inkscape="http://www.inkscape.org/namespaces/inkscape"
   width="219.01131"
   height="120.08183"
   viewBox="0 0 57.94674 31.77165"
   version="1.1"
   id="svg8"
   inkscape:version="0.92.2 2405546, 2018-03-11"
   sodipodi:docname="amoeba.svg">
  <defs
     id="defs2" />
  <sodipodi:namedview
     id="base"
     pagecolor="#ffffff"
     bordercolor="#666666"
     borderopacity="1.0"
     inkscape:pageopacity="0.0"
     inkscape:pageshadow="2"
     inkscape:zoom="1.4"
     inkscape:cx="79.879735"
     inkscape:cy="3.3230009"
     inkscape:document-units="mm"
     inkscape:current-layer="layer1"
     showgrid="false"
     units="px"
     fit-margin-top="0"
     fit-margin-left="0"
     fit-margin-right="0"
     fit-margin-bottom="0"
     inkscape:window-width="1366"
     inkscape:window-height="716"
     inkscape:window-x="0"
     inkscape:window-y="0"
     inkscape:window-maximized="1" />
  <metadata
     id="metadata5">
    <rdf:RDF>
      <cc:Work
         rdf:about="">
        <dc:format>image/svg+xml</dc:format>
        <dc:type
           rdf:resource="http://purl.org/dc/dcmitype/StillImage" />
        <dc:title></dc:title>
      </cc:Work>
    </rdf:RDF>
  </metadata>
  <g
     inkscape:label="Layer 1"
     inkscape:groupmode="layer"
     id="layer1"
     transform="translate(-8.5725391,-237.07513)">
    <path
       style="fill:#2a39c6;fill-opacity:1;stroke:#ffffff;stroke-width:2;stroke-linecap:butt;stroke-linejoin:miter;stroke-miterlimit:4;stroke-dasharray:none;stroke-opacity:1"
       d="m 20.579753,254.50413 c -4.580383,-0.93695 -10.238345,-1.93211 -10.9671376,0.90394 -0.4097684,4.17869 2.4286936,4.13561 5.7944496,4.12015 7.584306,2.3e-4 1.188938,9.44569 15.32893,7.2703 v -2.58797 c 0.456214,-1.61973 4.692286,-0.0737 8.482966,1.55976 4.748224,2.50665 6.324413,2.3704 10.153939,1.66177 4.127311,-0.23877 3.796479,-1.98364 4.529834,-5.94375 0.332168,-2.67241 3.751772,-1.62831 7.00748,-0.20171 7.052659,4.07407 4.363592,-0.16789 2.62338,-5.96859 -1.196439,-2.79679 -2.438928,-3.01853 -4.360732,-3.07091 -3.687748,-0.17264 -5.126239,-1.79784 -7.779716,-3.66244 -4.304135,-3.06784 -3.507576,-3.5477 -8.284812,-3.15772 l -6.061224,0.4948 c -3.802766,0.12248 -3.657887,0.19783 -6.01524,2.69604 -1.817464,1.92397 -2.441629,2.36741 -4.404956,-0.85004 -3.394278,-5.52698 -6.226323,-4.52492 -4.412744,2.60321 0.855606,3.67298 2.226032,2.97502 -1.634417,4.13316 z"
       id="path815"
       inkscape:connector-curvature="0"
       sodipodi:nodetypes="cccccccccccccccccc" />
    <circle
       style="fill:#2a39c6;fill-opacity:1;stroke:#ffffff;stroke-width:4;stroke-linecap:butt;stroke-linejoin:bevel;stroke-miterlimit:4;stroke-dasharray:none;stroke-dashoffset:54.99659348;stroke-opacity:1"
       id="path817"
       cx="23.151041"
       cy="242.85489"
       r="3.7797618" />
    <path
       style="fill:none;stroke:#ffffff;stroke-width:2;stroke-linecap:butt;stroke-linejoin:miter;stroke-miterlimit:4;stroke-dasharray:none;stroke-opacity:1"
       d="m 19.777945,261.58677 11.626223,-3.20724"
       id="path821"
       inkscape:connector-curvature="0" />
  </g>
</svg>
