<?xml version="1.0" encoding="UTF-8" standalone="no"?>
<svg
   xmlns:dc="http://purl.org/dc/elements/1.1/"
   xmlns:cc="http://creativecommons.org/ns#"
   xmlns:rdf="http://www.w3.org/1999/02/22-rdf-syntax-ns#"
   xmlns:svg="http://www.w3.org/2000/svg"
   xmlns="http://www.w3.org/2000/svg"
   xmlns:xlink="http://www.w3.org/1999/xlink"
   xmlns:sodipodi="http://sodipodi.sourceforge.net/DTD/sodipodi-0.dtd"
   xmlns:inkscape="http://www.inkscape.org/namespaces/inkscape"
   version="1.0"
   width="206.0536"
   height="189.4549"
   id="svg2"
   inkscape:version="0.91 r13725"
   sodipodi:docname="butterfly.svg">
  <metadata
     id="metadata3534">
    <rdf:RDF>
      <cc:Work
         rdf:about="">
        <dc:format>image/svg+xml</dc:format>
        <dc:type
           rdf:resource="http://purl.org/dc/dcmitype/StillImage" />
        <dc:title></dc:title>
      </cc:Work>
    </rdf:RDF>
  </metadata>
  <sodipodi:namedview
     pagecolor="#ffffff"
     bordercolor="#666666"
     borderopacity="1"
     objecttolerance="10"
     gridtolerance="10"
     guidetolerance="10"
     inkscape:pageopacity="0"
     inkscape:pageshadow="2"
     inkscape:window-width="1305"
     inkscape:window-height="744"
     id="namedview3532"
     showgrid="false"
     fit-margin-top="1"
     fit-margin-left="1"
     fit-margin-right="1"
     fit-margin-bottom="1"
     inkscape:zoom="1.7244319"
     inkscape:cx="21.535653"
     inkscape:cy="70.663958"
     inkscape:window-x="55"
     inkscape:window-y="24"
     inkscape:window-maximized="1"
     inkscape:current-layer="g2347" />
  <defs
     id="defs4">
    <linearGradient
       id="linearGradient2779">
      <stop
         id="stop2781"
         style="stop-color:#7f7f7f;stop-opacity:1"
         offset="0" />
      <stop
         id="stop2783"
         style="stop-color:#f5f5f5;stop-opacity:1"
         offset="1" />
    </linearGradient>
    <linearGradient
       x1="47.76152"
       y1="18.860083"
       x2="10.598763"
       y2="26.461481"
       id="linearGradient2785"
       xlink:href="#linearGradient2779"
       gradientUnits="userSpaceOnUse"
       gradientTransform="translate(-6.982678,2.828423)" />
    <linearGradient
       x1="47.76152"
       y1="18.860083"
       x2="10.598763"
       y2="26.461481"
       id="linearGradient1889"
       xlink:href="#linearGradient2779"
       gradientUnits="userSpaceOnUse"
       gradientTransform="translate(-6.982678,2.828423)" />
    <linearGradient
       x1="47.76152"
       y1="18.860083"
       x2="10.598763"
       y2="26.461481"
       id="linearGradient7168"
       xlink:href="#linearGradient2779"
       gradientUnits="userSpaceOnUse"
       gradientTransform="translate(-9.1351343,6.134708)" />
    <radialGradient
       cx="18.63378"
       cy="17.486208"
       r="40.692665"
       fx="18.934305"
       fy="17.810213"
       id="radialGradient3654"
       xlink:href="#linearGradient4750"
       gradientUnits="userSpaceOnUse"
       gradientTransform="matrix(5.57654,0,0,5.187481,56.50405,37.58623)" />
    <radialGradient
       cx="18.63378"
       cy="17.486208"
       r="40.692665"
       fx="18.934305"
       fy="17.810213"
       id="radialGradient3651"
       xlink:href="#linearGradient4750"
       gradientUnits="userSpaceOnUse"
       gradientTransform="scale(1.036822,0.964486)" />
    <radialGradient
       cx="18.63378"
       cy="17.486208"
       r="40.692665"
       fx="18.934305"
       fy="17.810213"
       id="radialGradient3615"
       xlink:href="#linearGradient4750"
       gradientUnits="userSpaceOnUse"
       gradientTransform="matrix(5.57654,0,0,5.187481,56.50405,37.58623)" />
    <radialGradient
       cx="18.63378"
       cy="17.486208"
       r="40.692665"
       fx="18.934305"
       fy="17.810213"
       id="radialGradient3610"
       xlink:href="#linearGradient4750"
       gradientUnits="userSpaceOnUse"
       gradientTransform="matrix(5.57654,0,0,5.187481,56.50405,37.58623)" />
    <radialGradient
       cx="18.63378"
       cy="17.486208"
       r="40.692665"
       fx="18.934305"
       fy="17.810213"
       id="radialGradient3601"
       xlink:href="#linearGradient4750"
       gradientUnits="userSpaceOnUse"
       gradientTransform="matrix(5.57654,0,0,5.187481,56.50405,37.58623)" />
    <radialGradient
       cx="18.63378"
       cy="17.486208"
       r="40.692665"
       fx="18.934305"
       fy="17.810213"
       id="radialGradient3594"
       xlink:href="#linearGradient4750"
       gradientUnits="userSpaceOnUse"
       gradientTransform="matrix(5.57654,0,0,5.187481,56.50405,37.58623)" />
    <radialGradient
       cx="18.63378"
       cy="17.486208"
       r="40.692665"
       fx="18.934305"
       fy="17.810213"
       id="radialGradient3587"
       xlink:href="#linearGradient4750"
       gradientUnits="userSpaceOnUse"
       gradientTransform="matrix(5.57654,0,0,5.187481,56.50405,37.58623)" />
    <radialGradient
       cx="18.63378"
       cy="17.486208"
       r="40.692665"
       fx="18.934305"
       fy="17.810213"
       id="radialGradient3580"
       xlink:href="#linearGradient4750"
       gradientUnits="userSpaceOnUse"
       gradientTransform="matrix(5.57654,0,0,5.187481,56.50405,37.58623)" />
    <radialGradient
       cx="18.63378"
       cy="17.486208"
       r="40.692665"
       fx="18.934305"
       fy="17.810213"
       id="radialGradient3573"
       xlink:href="#linearGradient4750"
       gradientUnits="userSpaceOnUse"
       gradientTransform="matrix(5.57654,0,0,5.187481,56.50405,37.58623)" />
    <radialGradient
       cx="18.63378"
       cy="17.486208"
       r="40.692665"
       fx="18.934305"
       fy="17.810213"
       id="radialGradient3566"
       xlink:href="#linearGradient4750"
       gradientUnits="userSpaceOnUse"
       gradientTransform="matrix(5.57654,0,0,5.187481,56.50405,37.58623)" />
    <radialGradient
       cx="18.63378"
       cy="17.486208"
       r="40.692665"
       fx="18.934305"
       fy="17.810213"
       id="radialGradient3557"
       xlink:href="#linearGradient4750"
       gradientUnits="userSpaceOnUse"
       gradientTransform="matrix(5.57654,0,0,5.187481,56.50405,37.58623)" />
    <linearGradient
       id="linearGradient4750">
      <stop
         id="stop4752"
         style="stop-color:#ffffff;stop-opacity:1"
         offset="0" />
      <stop
         id="stop4758"
         style="stop-color:#fefefe;stop-opacity:1"
         offset="0.37931034" />
      <stop
         id="stop4754"
         style="stop-color:#1d1d1d;stop-opacity:1"
         offset="1" />
    </linearGradient>
    <radialGradient
       cx="18.63378"
       cy="17.486208"
       r="40.692665"
       fx="18.934305"
       fy="17.810213"
       id="radialGradient1516"
       xlink:href="#linearGradient4750"
       gradientUnits="userSpaceOnUse"
       gradientTransform="scale(1.036822,0.964486)" />
    <radialGradient
       cx="18.63378"
       cy="17.486208"
       r="40.692665"
       fx="18.934305"
       fy="17.810213"
       id="radialGradient1526"
       xlink:href="#linearGradient4750"
       gradientUnits="userSpaceOnUse"
       gradientTransform="scale(1.036822,0.964486)" />
    <radialGradient
       cx="18.63378"
       cy="17.486208"
       r="40.692665"
       fx="18.934305"
       fy="17.810213"
       id="radialGradient1528"
       xlink:href="#linearGradient4750"
       gradientUnits="userSpaceOnUse"
       gradientTransform="scale(1.036822,0.964486)" />
    <radialGradient
       cx="18.63378"
       cy="17.486208"
       r="40.692665"
       fx="18.934305"
       fy="17.810213"
       id="radialGradient1530"
       xlink:href="#linearGradient4750"
       gradientUnits="userSpaceOnUse"
       gradientTransform="scale(1.036822,0.964486)" />
    <radialGradient
       cx="18.63378"
       cy="17.486208"
       r="40.692665"
       fx="18.934305"
       fy="17.810213"
       id="radialGradient1532"
       xlink:href="#linearGradient4750"
       gradientUnits="userSpaceOnUse"
       gradientTransform="scale(1.036822,0.964486)" />
    <radialGradient
       cx="18.63378"
       cy="17.486208"
       r="40.692665"
       fx="18.934305"
       fy="17.810213"
       id="radialGradient1534"
       xlink:href="#linearGradient4750"
       gradientUnits="userSpaceOnUse"
       gradientTransform="scale(1.036822,0.964486)" />
    <radialGradient
       cx="18.63378"
       cy="17.486208"
       r="40.692665"
       fx="18.934305"
       fy="17.810213"
       id="radialGradient1536"
       xlink:href="#linearGradient4750"
       gradientUnits="userSpaceOnUse"
       gradientTransform="scale(1.036822,0.964486)" />
    <radialGradient
       cx="18.63378"
       cy="17.486208"
       r="40.692665"
       fx="18.934305"
       fy="17.810213"
       id="radialGradient1538"
       xlink:href="#linearGradient4750"
       gradientUnits="userSpaceOnUse"
       gradientTransform="scale(1.036822,0.964486)" />
    <radialGradient
       cx="18.63378"
       cy="17.486208"
       r="40.692665"
       fx="18.934305"
       fy="17.810213"
       id="radialGradient1540"
       xlink:href="#linearGradient4750"
       gradientUnits="userSpaceOnUse"
       gradientTransform="scale(1.036822,0.964486)" />
    <radialGradient
       cx="18.63378"
       cy="17.486208"
       r="40.692665"
       fx="18.934305"
       fy="17.810213"
       id="radialGradient1542"
       xlink:href="#linearGradient4750"
       gradientUnits="userSpaceOnUse"
       gradientTransform="scale(1.036822,0.964486)" />
    <radialGradient
       cx="18.63378"
       cy="17.486208"
       r="40.692665"
       fx="18.934305"
       fy="17.810213"
       id="radialGradient1544"
       xlink:href="#linearGradient4750"
       gradientUnits="userSpaceOnUse"
       gradientTransform="scale(1.036822,0.964486)" />
    <linearGradient
       id="linearGradient2889">
      <stop
         id="stop2891"
         style="stop-color:#a0a3e1;stop-opacity:1"
         offset="0" />
      <stop
         id="stop2893"
         style="stop-color:#dedcfa;stop-opacity:1"
         offset="1" />
    </linearGradient>
    <linearGradient
       x1="92.604424"
       y1="304.50995"
       x2="263.82959"
       y2="26.290426"
       id="linearGradient3199"
       xlink:href="#linearGradient2889"
       gradientUnits="userSpaceOnUse" />
    <linearGradient
       x1="92.604424"
       y1="304.50995"
       x2="263.82959"
       y2="26.290426"
       id="linearGradient2895"
       xlink:href="#linearGradient2889"
       gradientUnits="userSpaceOnUse" />
    <mask
       id="mask2858">
      <path
         d="m 100,24 c 0,0 -11.5,42.5 34,52 45.5,9.5 83,-9 83,-9 0,0 -6,96.46447 -21,125.46447 C 181,221.46447 141.5,254 118,254 94.5,254 76,238.5 70,223.5 64,208.5 60.5,128 71,102 78.202941,84.164147 73,78.5 82,49.5 87.643273,31.316121 100.5,23 100,24 Z"
         id="use2848"
         style="fill:#e8e7fe;fill-opacity:1;fill-rule:evenodd;stroke:#000000;stroke-width:3.125;stroke-linecap:butt;stroke-linejoin:miter;stroke-miterlimit:4;stroke-dasharray:none;stroke-opacity:1"
         inkscape:connector-curvature="0" />
    </mask>
    <mask
       id="mask2799">
      <path
         d="m 168.99397,144.76334 c 0,0 45.49917,11.86935 77.15076,3.95645 31.6516,-7.9129 63.3032,-45.49917 63.3032,-45.49917 0,0 34.61893,88.031 38.57538,118.69349 3.95645,30.66248 1.97822,67.25964 -20.77136,90.00923 -22.74959,22.74958 -71.57949,13.48417 -94.95479,-9.89113 -13.88286,-13.88285 -27.69515,-40.55361 -39.5645,-68.24875 -11.86935,-27.69515 -24.72781,-90.00923 -23.73869,-89.02012 z"
         id="use2796"
         style="fill:#e8e7fe;fill-opacity:1;fill-rule:evenodd;stroke:#000000;stroke-width:3.125;stroke-linecap:butt;stroke-linejoin:round;stroke-miterlimit:4;stroke-dasharray:none;stroke-opacity:1"
         inkscape:connector-curvature="0" />
    </mask>
    <linearGradient
       id="linearGradient2812">
      <stop
         id="stop2814"
         style="stop-color:#000000;stop-opacity:1"
         offset="0" />
      <stop
         id="stop2816"
         style="stop-color:#ffffff;stop-opacity:0"
         offset="1" />
    </linearGradient>
    <linearGradient
       id="linearGradient26820">
      <stop
         id="stop26822"
         style="stop-color:#a0a3e1;stop-opacity:1"
         offset="0" />
      <stop
         id="stop26824"
         style="stop-color:#dedcfa;stop-opacity:1"
         offset="1" />
    </linearGradient>
    <linearGradient
       id="linearGradient2242">
      <stop
         id="stop2244"
         style="stop-color:#a0a3e1;stop-opacity:1"
         offset="0" />
      <stop
         id="stop2246"
         style="stop-color:#dedcfa;stop-opacity:1"
         offset="1" />
    </linearGradient>
    <linearGradient
       x1="92.604424"
       y1="304.50995"
       x2="263.82959"
       y2="26.290426"
       id="linearGradient2240"
       xlink:href="#linearGradient2889"
       gradientUnits="userSpaceOnUse" />
  </defs>
  <g
     transform="matrix(0.5378493,0,0,0.5378493,-48.306608,170.6102)"
     id="g3282"
     style="display:inline;overflow:visible;visibility:visible;fill:url(#radialGradient1526);fill-opacity:1;fill-rule:nonzero;stroke:none;stroke-width:1.01794541;stroke-linecap:butt;stroke-linejoin:miter;stroke-miterlimit:4;stroke-dashoffset:0;stroke-opacity:1;marker:none;marker-start:none;marker-mid:none;marker-end:none">
    <g
       id="g3284"
       style="display:inline;overflow:visible;visibility:visible;opacity:0.75;fill:url(#radialGradient1528);stroke-dashoffset:0;marker:none;marker-start:none;marker-mid:none;marker-end:none">
      <path
         d=""
         id="path3286"
         style="display:inline;overflow:visible;visibility:visible;fill:url(#radialGradient1530);stroke-dashoffset:0;marker:none;marker-start:none;marker-mid:none;marker-end:none"
         inkscape:connector-curvature="0" />
    </g>
    <g
       id="g3288"
       style="display:inline;overflow:visible;visibility:visible;fill:url(#radialGradient1532);stroke-dashoffset:0;marker:none;marker-start:none;marker-mid:none;marker-end:none">
      <path
         d=""
         id="path3290"
         style="display:inline;overflow:visible;visibility:visible;fill:url(#radialGradient1534);stroke-dashoffset:0;marker:none;marker-start:none;marker-mid:none;marker-end:none"
         inkscape:connector-curvature="0" />
    </g>
  </g>
  <g
     transform="matrix(0.5378493,0,0,0.5378493,-48.306608,170.6102)"
     id="g3292"
     style="display:inline;overflow:visible;visibility:visible;fill:url(#radialGradient1536);fill-opacity:1;fill-rule:nonzero;stroke:none;stroke-width:1.01794541;stroke-linecap:butt;stroke-linejoin:miter;stroke-miterlimit:4;stroke-dashoffset:0;stroke-opacity:1;marker:none;marker-start:none;marker-mid:none;marker-end:none">
    <g
       id="g3294"
       style="display:inline;overflow:visible;visibility:visible;opacity:0.75;fill:url(#radialGradient1538);stroke-dashoffset:0;marker:none;marker-start:none;marker-mid:none;marker-end:none">
      <path
         d=""
         id="path3296"
         style="display:inline;overflow:visible;visibility:visible;fill:url(#radialGradient1540);stroke-dashoffset:0;marker:none;marker-start:none;marker-mid:none;marker-end:none"
         inkscape:connector-curvature="0" />
    </g>
    <g
       id="g3298"
       style="display:inline;overflow:visible;visibility:visible;fill:url(#radialGradient1542);stroke-dashoffset:0;marker:none;marker-start:none;marker-mid:none;marker-end:none">
      <path
         d=""
         id="path3300"
         style="display:inline;overflow:visible;visibility:visible;fill:url(#radialGradient1544);stroke-dashoffset:0;marker:none;marker-start:none;marker-mid:none;marker-end:none"
         inkscape:connector-curvature="0" />
    </g>
  </g>
  <g
     transform="matrix(0.04932285,0.02847656,-0.02847656,0.04932285,43.004952,191.30731)"
     id="g2347"
     style="opacity:1;fill:#2837c0;fill-opacity:1;stroke:none;stroke-width:0;stroke-miterlimit:4;stroke-dasharray:none;stroke-opacity:1">
    <path
       id="path4211"
       transform="matrix(15.205934,-8.77915,8.77915,15.205934,-2258.4336,-2511.3794)"
       d="m 33.900391,0 c -2.346707,0.0246417 -4.282559,1.0137505 -5.519532,3.15625 -4.398125,7.617776 1.5443,28.992959 -7.251953,44.228516 -8.79625,15.235552 6.467876,25.740055 5.148438,28.02539 -1.319439,2.285335 -16.928921,4.108608 -22.6464846,14.011719 -5.717563,9.90311 -3.47487768,20.677195 -1.3964844,27.632815 2.0783933,6.95561 3.5694684,14.92649 14.488281,21.23047 10.918815,6.30398 14.202069,4.13627 16.644532,2.83789 0.105923,-0.0563 0.938245,-0.51404 1.15625,-0.63282 8.653935,-3.20922 25.433538,-10.87853 33.130859,-14.67968 -3.619884,6.98125 -12.870287,21.29179 -11.074219,24.73242 -0.02235,0.0568 -0.06741,0.15364 -0.08789,0.20703 0.100713,0.0582 0.207807,0.0889 0.316406,0.11719 0.07945,0.081 0.161842,0.15996 0.263672,0.21875 0.03609,-0.0446 0.09863,-0.13181 0.136718,-0.17969 3.87878,-0.17085 11.645915,-15.33554 15.88086,-21.95898 0.556639,8.5661 2.303698,26.93571 3.851562,36.03515 0.0061,0.24784 0.0251,1.19663 0.0293,1.31641 0.0968,2.76443 -0.139517,6.69016 10.779297,12.99414 10.918814,6.30398 18.569877,3.61146 25.632807,1.93359 7.06294,-1.67786 17.51486,-5.12228 23.23242,-15.02539 5.71757,-9.90311 -0.50889,-24.3338 0.81055,-26.61914 1.31944,-2.28533 18.04945,5.68087 26.8457,-9.55469 8.79626,-15.23555 30.27766,-20.77675 34.67579,-28.39453 4.39812,-7.617774 -8.25801,-15.601999 -24.07227,-16.94531 -15.81427,-1.343305 -27.56622,-0.340675 -51.03125,5.410156 l -21.0332,6.816406 c -2.53926,-1.466041 -3.773143,5.947108 -7.582031,3.748048 -2.482658,-1.433364 -1.113313,-5.094099 -1.048828,-8.16211 0.583549,-1.870702 20.569199,-4.886698 22.253899,-7.804688 2.20029,-3.811008 1.27708,-5.166777 -1.75976,-1.585937 -3.03234,3.575538 -14.5666,3.137881 -20.693358,7.525391 -0.173406,-0.628494 -0.469892,-1.196575 -0.976563,-1.65625 0.003,-0.02648 0.01311,-0.06209 0.01563,-0.08789 -0.114506,-0.06611 -0.227989,-0.120547 -0.341797,-0.171875 -0.09553,-0.06774 -0.191785,-0.135464 -0.298828,-0.197266 -0.02101,0.01502 -0.04702,0.04084 -0.06836,0.05664 -0.651521,-0.208869 -1.290792,-0.181799 -1.921875,-0.01758 0.735363,-7.499496 -5.41031,-17.268075 -3.830078,-21.681641 1.582678,-4.420401 -0.05167,-4.543431 -2.251953,-0.732422 -1.684781,2.918127 5.696369,21.736627 4.367187,23.175782 -2.624717,1.589857 -5.111106,4.60523 -7.59375,3.171875 -3.808888,-2.199063 1.996291,-6.975365 -0.542969,-8.441407 L 75.923828,62.429688 C 69.171677,39.232958 64.164221,28.555154 55.09375,15.53125 48.574347,6.1703224 39.897529,-0.06297323 33.900391,0 Z"
       style="fill:#000000;fill-opacity:1;fill-rule:nonzero;stroke:#ffffff;stroke-width:4.25196838;stroke-linecap:butt;stroke-linejoin:miter;stroke-miterlimit:4;stroke-dasharray:none;stroke-opacity:1"
       inkscape:connector-curvature="0" />
    <path
       style="fill:#2837c0;fill-opacity:1;fill-rule:nonzero;stroke:#ffffff;stroke-width:0;stroke-linecap:butt;stroke-linejoin:miter;stroke-miterlimit:4;stroke-dasharray:none;stroke-opacity:1"
       d="m 33.900391,0 c -2.346707,0.0246417 -4.282559,1.0137505 -5.519532,3.15625 -4.398125,7.617776 1.5443,28.992959 -7.251953,44.228516 -8.79625,15.235552 6.467876,25.740055 5.148438,28.02539 -1.319439,2.285335 -16.928921,4.108608 -22.6464846,14.011719 -5.717563,9.90311 -3.47487768,20.677195 -1.3964844,27.632815 2.0783933,6.95561 3.5694684,14.92649 14.488281,21.23047 10.918815,6.30398 14.202069,4.13627 16.644532,2.83789 0.105923,-0.0563 0.938245,-0.51404 1.15625,-0.63282 8.653935,-3.20922 25.433538,-10.87853 33.130859,-14.67968 -3.619884,6.98125 -12.870287,21.29179 -11.074219,24.73242 -0.02235,0.0568 -0.06741,0.15364 -0.08789,0.20703 0.100713,0.0582 0.207807,0.0889 0.316406,0.11719 0.07945,0.081 0.161842,0.15996 0.263672,0.21875 0.03609,-0.0446 0.09863,-0.13181 0.136718,-0.17969 3.87878,-0.17085 11.645915,-15.33554 15.88086,-21.95898 0.556639,8.5661 2.303698,26.93571 3.851562,36.03515 0.0061,0.24784 0.0251,1.19663 0.0293,1.31641 0.0968,2.76443 -0.139517,6.69016 10.779297,12.99414 10.918814,6.30398 18.569877,3.61146 25.632807,1.93359 7.06294,-1.67786 17.51486,-5.12228 23.23242,-15.02539 5.71757,-9.90311 -0.50889,-24.3338 0.81055,-26.61914 1.31944,-2.28533 18.04945,5.68087 26.8457,-9.55469 8.79626,-15.23555 30.27766,-20.77675 34.67579,-28.39453 4.39812,-7.617774 -8.25801,-15.601999 -24.07227,-16.94531 -15.81427,-1.343305 -27.56622,-0.340675 -51.03125,5.410156 l -21.0332,6.816406 c -2.53926,-1.466041 -3.773143,5.947108 -7.582031,3.748048 -2.482658,-1.433364 -1.113313,-5.094099 -1.048828,-8.16211 0.583549,-1.870702 20.569199,-4.886698 22.253899,-7.804688 2.20029,-3.811008 1.27708,-5.166777 -1.75976,-1.585937 -3.03234,3.575538 -14.5666,3.137881 -20.693358,7.525391 -0.173406,-0.628494 -0.469892,-1.196575 -0.976563,-1.65625 0.003,-0.02648 0.01311,-0.06209 0.01563,-0.08789 -0.114506,-0.06611 -0.227989,-0.120547 -0.341797,-0.171875 -0.09553,-0.06774 -0.191785,-0.135464 -0.298828,-0.197266 -0.02101,0.01502 -0.04702,0.04084 -0.06836,0.05664 -0.651521,-0.208869 -1.290792,-0.181799 -1.921875,-0.01758 0.735363,-7.499496 -5.41031,-17.268075 -3.830078,-21.681641 1.582678,-4.420401 -0.05167,-4.543431 -2.251953,-0.732422 -1.684781,2.918127 5.696369,21.736627 4.367187,23.175782 -2.624717,1.589857 -5.111106,4.60523 -7.59375,3.171875 -3.808888,-2.199063 1.996291,-6.975365 -0.542969,-8.441407 L 75.923828,62.429688 C 69.171677,39.232958 64.164221,28.555154 55.09375,15.53125 48.574347,6.1703224 39.897529,-0.06297323 33.900391,0 Z"
       transform="matrix(15.205934,-8.77915,8.77915,15.205934,-2258.4336,-2511.3794)"
       id="path2351"
       inkscape:connector-curvature="0" />
  </g>
</svg>
