<?xml version="1.0" encoding="UTF-8" standalone="no"?>
<!-- Created with Inkscape (http://www.inkscape.org/) -->

<svg
   xmlns:dc="http://purl.org/dc/elements/1.1/"
   xmlns:cc="http://creativecommons.org/ns#"
   xmlns:rdf="http://www.w3.org/1999/02/22-rdf-syntax-ns#"
   xmlns:svg="http://www.w3.org/2000/svg"
   xmlns="http://www.w3.org/2000/svg"
   xmlns:xlink="http://www.w3.org/1999/xlink"
   xmlns:sodipodi="http://sodipodi.sourceforge.net/DTD/sodipodi-0.dtd"
   xmlns:inkscape="http://www.inkscape.org/namespaces/inkscape"
   width="1920mm"
   height="1080mm"
   viewBox="0 0 1920 1080"
   version="1.1"
   id="svg4409"
   inkscape:version="0.91 r13725"
   sodipodi:docname="fondo_final.svg">
  <defs
     id="defs4403">
    <linearGradient
       inkscape:collect="always"
       id="linearGradient3347">
      <stop
         style="stop-color:#f2f2f2;stop-opacity:1;"
         offset="0"
         id="stop3349" />
      <stop
         style="stop-color:#d7d7d7;stop-opacity:0"
         offset="1"
         id="stop3351" />
    </linearGradient>
    <linearGradient
       inkscape:collect="always"
       id="linearGradient3343">
      <stop
         style="stop-color:#d3d6f6;stop-opacity:1;"
         offset="0"
         id="stop3345" />
      <stop
         style="stop-color:#ffffff;stop-opacity:1"
         offset="1"
         id="stop3347" />
    </linearGradient>
    <linearGradient
       inkscape:collect="always"
       id="linearGradient3335">
      <stop
         style="stop-color:#2b3acf;stop-opacity:1;"
         offset="0"
         id="stop3337" />
      <stop
         style="stop-color:#9ba2ea;stop-opacity:1"
         offset="1"
         id="stop3339" />
    </linearGradient>
    <linearGradient
       inkscape:collect="always"
       xlink:href="#linearGradient3335"
       id="linearGradient3341"
       x1="-597.89905"
       y1="107.25597"
       x2="-597.89905"
       y2="417.70044"
       gradientUnits="userSpaceOnUse" />
    <linearGradient
       inkscape:collect="always"
       xlink:href="#linearGradient3343"
       id="linearGradient3349"
       x1="247.03355"
       y1="-137.57373"
       x2="247.03355"
       y2="398.74716"
       gradientUnits="userSpaceOnUse" />
    <linearGradient
       inkscape:collect="always"
       xlink:href="#linearGradient3347"
       id="linearGradient5137"
       gradientUnits="userSpaceOnUse"
       gradientTransform="matrix(1.143289,0,0,1.143289,158.99955,89.573278)"
       x1="-971.69037"
       y1="-681.37811"
       x2="-971.69037"
       y2="-446.89371" />
  </defs>
  <sodipodi:namedview
     id="base"
     pagecolor="#ffffff"
     bordercolor="#666666"
     borderopacity="1.0"
     inkscape:pageopacity="0.0"
     inkscape:pageshadow="2"
     inkscape:zoom="0.079999996"
     inkscape:cx="2564.6747"
     inkscape:cy="2425.2878"
     inkscape:document-units="mm"
     inkscape:current-layer="layer1"
     showgrid="false"
     inkscape:window-width="1305"
     inkscape:window-height="744"
     inkscape:window-x="55"
     inkscape:window-y="24"
     inkscape:window-maximized="1"
     fit-margin-top="0"
     fit-margin-left="0"
     fit-margin-right="0"
     fit-margin-bottom="0" />
  <metadata
     id="metadata4406">
    <rdf:RDF>
      <cc:Work
         rdf:about="">
        <dc:format>image/svg+xml</dc:format>
        <dc:type
           rdf:resource="http://purl.org/dc/dcmitype/StillImage" />
        <dc:title />
      </cc:Work>
    </rdf:RDF>
  </metadata>
  <g
     inkscape:label="Layer 1"
     inkscape:groupmode="layer"
     id="layer1"
     transform="translate(1179.9824,761.07739)">
    <rect
       style="fill:url(#linearGradient3349);fill-opacity:1;stroke:none;stroke-width:13.74837494;stroke-linecap:butt;stroke-linejoin:bevel;stroke-miterlimit:4;stroke-dasharray:none;stroke-dashoffset:54.99659348;stroke-opacity:1"
       id="rect4166"
       width="1920"
       height="1080"
       x="-740.01758"
       y="-761.07739"
       ry="0"
       transform="scale(-1,1)" />
    <rect
       style="opacity:1;fill:#f2f2f2;fill-opacity:1;stroke:none"
       id="rect5471"
       width="2151.9448"
       height="190.50005"
       x="-1328.149"
       y="-852.29968" />
    <rect
       style="fill:url(#linearGradient3341);fill-opacity:1;stroke:#ffffff;stroke-width:1.05077195;stroke-linecap:butt;stroke-linejoin:bevel;stroke-miterlimit:4;stroke-dasharray:none;stroke-dashoffset:54.99659348;stroke-opacity:1"
       id="rect5747"
       width="1918.9493"
       height="248.94923"
       x="-1178.9318"
       y="69.973389" />
    <ellipse
       style="fill:url(#linearGradient5137);fill-opacity:1"
       id="path3345"
       cx="-964.75708"
       cy="-658.06744"
       rx="59.890999"
       ry="59.891003" />
    <use
       id="use3355"
       xlink:href="#path3345"
       x="0"
       y="0"
       width="100%"
       height="100%"
       transform="translate(-89.480227,47.290134)" />
    <use
       id="use3359"
       xlink:href="#path3345"
       x="0"
       y="0"
       width="100%"
       height="100%"
       transform="translate(-148.16743,32.896462)" />
    <use
       id="use3387"
       xlink:href="#path3345"
       x="0"
       y="0"
       width="100%"
       height="100%"
       transform="translate(-363.64348,26.862219)" />
    <use
       id="use3399"
       xlink:href="#path3345"
       x="0"
       y="0"
       width="100%"
       height="100%"
       transform="translate(145.91199,43.739852)" />
    <use
       id="use3407"
       xlink:href="#path3345"
       x="0"
       y="0"
       width="100%"
       height="100%"
       transform="translate(132.17759,33.78747)" />
    <use
       id="use3409"
       xlink:href="#path3345"
       x="0"
       y="0"
       width="100%"
       height="100%"
       transform="translate(153.48657,9.5476044)" />
    <use
       id="use3417"
       xlink:href="#path3345"
       x="0"
       y="0"
       width="100%"
       height="100%"
       transform="translate(90.239919,37.320692)" />
    <use
       id="use3419"
       xlink:href="#path3345"
       x="0"
       y="0"
       width="100%"
       height="100%"
       transform="translate(52.080156,39.999066)" />
    <use
       id="use3421"
       xlink:href="#path3345"
       x="0"
       y="0"
       width="100%"
       height="100%"
       transform="translate(96.672048,70.562508)" />
    <use
       id="use3427"
       xlink:href="#path3345"
       x="0"
       y="0"
       width="100%"
       height="100%"
       transform="translate(115.40736,-2.6714465)" />
    <use
       id="use3437"
       xlink:href="#path3345"
       x="0"
       y="0"
       width="100%"
       height="100%"
       transform="translate(49.643889,39.296137)" />
    <use
       id="use3443"
       xlink:href="#path3345"
       x="0"
       y="0"
       width="100%"
       height="100%"
       transform="translate(-21.814626,59.54652)" />
    <use
       id="use3451"
       xlink:href="#path3345"
       x="0"
       y="0"
       width="100%"
       height="100%"
       transform="translate(78.143896,50.339006)" />
    <use
       id="use3465"
       xlink:href="#path3345"
       x="0"
       y="0"
       width="100%"
       height="100%"
       transform="translate(329.13839,-4.5418454)" />
    <use
       id="use3467"
       xlink:href="#path3345"
       x="0"
       y="0"
       width="100%"
       height="100%"
       transform="translate(349.17675,38.324669)" />
    <use
       id="use3471"
       xlink:href="#path3345"
       x="0"
       y="0"
       width="100%"
       height="100%"
       transform="translate(337.61839,6.0114475)" />
    <use
       id="use3473"
       xlink:href="#path3345"
       x="0"
       y="0"
       width="100%"
       height="100%"
       transform="translate(344.71033,41.52441)" />
    <use
       id="use3477"
       xlink:href="#path3345"
       x="0"
       y="0"
       width="100%"
       height="100%"
       transform="translate(378.82516,-5.8113681)" />
    <use
       id="use3481"
       xlink:href="#path3345"
       x="0"
       y="0"
       width="100%"
       height="100%"
       transform="translate(372.06512,49.487218)" />
    <use
       id="use3483"
       xlink:href="#path3345"
       x="0"
       y="0"
       width="100%"
       height="100%"
       transform="translate(290.88238,-3.6694159)" />
    <use
       id="use3485"
       xlink:href="#path3345"
       x="0"
       y="0"
       width="100%"
       height="100%"
       transform="translate(440.6398,23.52182)" />
    <use
       id="use3487"
       xlink:href="#path3345"
       x="0"
       y="0"
       width="100%"
       height="100%"
       transform="matrix(2.0952381,0,0,2.0952381,1499.6024,752.51766)" />
    <use
       id="use3489"
       xlink:href="#path3345"
       x="0"
       y="0"
       width="100%"
       height="100%"
       transform="translate(327.81052,78.788166)" />
    <use
       id="use3491"
       xlink:href="#path3345"
       x="0"
       y="0"
       width="100%"
       height="100%"
       transform="translate(432.63793,9.3371519)" />
    <use
       id="use3493"
       xlink:href="#path3345"
       x="0"
       y="0"
       width="100%"
       height="100%"
       transform="translate(426.95462,4.6826964)" />
    <use
       id="use3495"
       xlink:href="#path3345"
       x="0"
       y="0"
       width="100%"
       height="100%"
       transform="translate(366.5646,43.644106)" />
    <use
       id="use3511"
       xlink:href="#path3345"
       x="0"
       y="0"
       width="100%"
       height="100%"
       transform="translate(269.31425,22.783602)" />
    <use
       id="use3513"
       xlink:href="#path3345"
       x="0"
       y="0"
       width="100%"
       height="100%"
       transform="translate(235.44522,-0.67375465)" />
    <use
       id="use3515"
       xlink:href="#path3345"
       x="0"
       y="0"
       width="100%"
       height="100%"
       transform="translate(118.59175,-4.6742316)" />
    <use
       id="use3519"
       xlink:href="#path3345"
       x="0"
       y="0"
       width="100%"
       height="100%"
       transform="translate(182.77116,16.320681)" />
    <use
       id="use3521"
       xlink:href="#path3345"
       x="0"
       y="0"
       width="100%"
       height="100%"
       transform="translate(226.13519,52.656243)" />
    <use
       id="use3523"
       xlink:href="#path3345"
       x="0"
       y="0"
       width="100%"
       height="100%"
       transform="translate(278.72918,-3.2259389)" />
    <use
       id="use3525"
       xlink:href="#path3345"
       x="0"
       y="0"
       width="100%"
       height="100%"
       transform="translate(176.56105,38.316538)" />
    <use
       id="use3529"
       xlink:href="#path3345"
       x="0"
       y="0"
       width="100%"
       height="100%"
       transform="translate(224.12082,67.461883)" />
    <use
       id="use3533"
       xlink:href="#path3345"
       x="0"
       y="0"
       width="100%"
       height="100%"
       transform="translate(292.68574,52.282023)" />
    <use
       id="use3535"
       xlink:href="#path3345"
       x="0"
       y="0"
       width="100%"
       height="100%"
       transform="translate(251.42982,49.376012)" />
    <use
       id="use3539"
       xlink:href="#path3345"
       x="0"
       y="0"
       width="100%"
       height="100%"
       transform="translate(385.27822,30.416029)" />
    <use
       id="use3541"
       xlink:href="#path3345"
       x="0"
       y="0"
       width="100%"
       height="100%"
       transform="translate(324.7682,38.502128)" />
    <use
       id="use3547"
       xlink:href="#path3345"
       x="0"
       y="0"
       width="100%"
       height="100%"
       transform="translate(368.43283,9.6836232)" />
    <use
       id="use3549"
       xlink:href="#path3345"
       x="0"
       y="0"
       width="100%"
       height="100%"
       transform="translate(457.85802,2.1149054)" />
    <use
       id="use3551"
       xlink:href="#path3345"
       x="0"
       y="0"
       width="100%"
       height="100%"
       transform="translate(435.69162,18.847003)" />
    <use
       id="use3553"
       xlink:href="#path3345"
       x="0"
       y="0"
       width="100%"
       height="100%"
       transform="translate(423.47915,-7.1284495)" />
    <use
       id="use3559"
       xlink:href="#path3345"
       x="0"
       y="0"
       width="100%"
       height="100%"
       transform="translate(424.62193,35.38217)" />
    <use
       id="use3561"
       xlink:href="#path3345"
       x="0"
       y="0"
       width="100%"
       height="100%"
       transform="translate(442.16868,-6.0726149)" />
    <use
       id="use3565"
       xlink:href="#path3345"
       x="0"
       y="0"
       width="100%"
       height="100%"
       transform="translate(391.21359,-0.36048628)" />
    <use
       id="use3567"
       xlink:href="#path3345"
       x="0"
       y="0"
       width="100%"
       height="100%"
       transform="translate(472.4393,58.090897)" />
    <use
       id="use3569"
       xlink:href="#path3345"
       x="0"
       y="0"
       width="100%"
       height="100%"
       transform="translate(449.54166,26.5635)" />
    <use
       id="use3571"
       xlink:href="#path3345"
       x="0"
       y="0"
       width="100%"
       height="100%"
       transform="translate(497.24205,53.821836)" />
    <use
       id="use3577"
       xlink:href="#path3345"
       x="0"
       y="0"
       width="100%"
       height="100%"
       transform="translate(472.22698,16.536389)" />
    <use
       id="use3581"
       xlink:href="#path3345"
       x="0"
       y="0"
       width="100%"
       height="100%"
       transform="translate(465.12494,13.438992)" />
    <use
       id="use3583"
       xlink:href="#path3345"
       x="0"
       y="0"
       width="100%"
       height="100%"
       transform="translate(513.69566,41.103811)" />
    <use
       id="use3585"
       xlink:href="#path3345"
       x="0"
       y="0"
       width="100%"
       height="100%"
       transform="translate(570.43754,59.045494)" />
    <use
       id="use3587"
       xlink:href="#path3345"
       x="0"
       y="0"
       width="100%"
       height="100%"
       transform="translate(520.50204,27.551306)" />
    <use
       id="use3593"
       xlink:href="#path3345"
       x="0"
       y="0"
       width="100%"
       height="100%"
       transform="translate(558.61548,15.852943)" />
    <use
       id="use3597"
       xlink:href="#path3345"
       x="0"
       y="0"
       width="100%"
       height="100%"
       transform="translate(586.8082,6.2083199)" />
    <use
       id="use3603"
       xlink:href="#path3345"
       x="0"
       y="0"
       width="100%"
       height="100%"
       transform="translate(549.8907,28.097747)" />
    <use
       id="use3625"
       xlink:href="#path3345"
       x="0"
       y="0"
       width="100%"
       height="100%"
       transform="translate(663.8872,41.217025)" />
    <use
       id="use3631"
       xlink:href="#path3345"
       x="0"
       y="0"
       width="100%"
       height="100%"
       transform="translate(567.87349,23.529676)" />
    <use
       id="use3633"
       xlink:href="#path3345"
       x="0"
       y="0"
       width="100%"
       height="100%"
       transform="translate(617.9892,48.116204)" />
    <use
       id="use3721"
       xlink:href="#path3345"
       x="0"
       y="0"
       width="100%"
       height="100%"
       transform="translate(590.51581,35.061888)" />
    <use
       id="use3731"
       xlink:href="#path3345"
       x="0"
       y="0"
       width="100%"
       height="100%"
       transform="translate(689.15852,62.968719)" />
    <use
       id="use3737"
       xlink:href="#path3345"
       x="0"
       y="0"
       width="100%"
       height="100%"
       transform="translate(664.42406,-3.6806551)" />
    <use
       id="use3741"
       xlink:href="#path3345"
       x="0"
       y="0"
       width="100%"
       height="100%"
       transform="translate(708.81477,43.931815)" />
    <use
       id="use3749"
       xlink:href="#path3345"
       x="0"
       y="0"
       width="100%"
       height="100%"
       transform="translate(858.01735,35.585617)" />
    <use
       id="use3751"
       xlink:href="#path3345"
       x="0"
       y="0"
       width="100%"
       height="100%"
       transform="translate(923.50456,-6.1478412)" />
    <use
       id="use3759"
       xlink:href="#path3345"
       x="0"
       y="0"
       width="100%"
       height="100%"
       transform="translate(902.46506,6.973918)" />
    <use
       id="use3761"
       xlink:href="#path3345"
       x="0"
       y="0"
       width="100%"
       height="100%"
       transform="translate(996.90467,18.631559)" />
    <use
       id="use3763"
       xlink:href="#path3345"
       x="0"
       y="0"
       width="100%"
       height="100%"
       transform="translate(888.48763,-4.1850638)" />
    <use
       id="use3773"
       xlink:href="#path3345"
       x="0"
       y="0"
       width="100%"
       height="100%"
       transform="translate(886.76246,20.609405)" />
    <use
       id="use3779"
       xlink:href="#path3345"
       x="0"
       y="0"
       width="100%"
       height="100%"
       transform="translate(991.41545,9.5994023)" />
    <use
       id="use3783"
       xlink:href="#path3345"
       x="0"
       y="0"
       width="100%"
       height="100%"
       transform="translate(919.65389,32.842157)" />
    <use
       id="use3789"
       xlink:href="#path3345"
       x="0"
       y="0"
       width="100%"
       height="100%"
       transform="translate(923.82424,-6.3878619)" />
    <use
       id="use3795"
       xlink:href="#path3345"
       x="0"
       y="0"
       width="100%"
       height="100%"
       transform="translate(881.8166,55.776852)" />
    <use
       id="use3797"
       xlink:href="#path3345"
       x="0"
       y="0"
       width="100%"
       height="100%"
       transform="translate(955.95333,-4.1159113)" />
    <use
       id="use3799"
       xlink:href="#path3345"
       x="0"
       y="0"
       width="100%"
       height="100%"
       transform="translate(939.04238,15.683619)" />
    <use
       id="use3801"
       xlink:href="#path3345"
       x="0"
       y="0"
       width="100%"
       height="100%"
       transform="translate(983.43549,57.234174)" />
    <use
       id="use3805"
       xlink:href="#path3345"
       x="0"
       y="0"
       width="100%"
       height="100%"
       transform="translate(1088.4585,-5.3708197)" />
    <use
       id="use3807"
       xlink:href="#path3345"
       x="0"
       y="0"
       width="100%"
       height="100%"
       transform="translate(1096.697,73.530134)" />
    <use
       id="use3811"
       xlink:href="#path3345"
       x="0"
       y="0"
       width="100%"
       height="100%"
       transform="translate(1168.8265,10.4966)" />
    <use
       id="use3813"
       xlink:href="#path3345"
       x="0"
       y="0"
       width="100%"
       height="100%"
       transform="translate(1137.6818,33.812855)" />
    <use
       id="use3817"
       xlink:href="#path3345"
       x="0"
       y="0"
       width="100%"
       height="100%"
       transform="translate(1173.3293,58.184516)" />
    <use
       id="use3819"
       xlink:href="#path3345"
       x="0"
       y="0"
       width="100%"
       height="100%"
       transform="translate(1063.5531,-2.884449)" />
    <use
       id="use3821"
       xlink:href="#path3345"
       x="0"
       y="0"
       width="100%"
       height="100%"
       transform="translate(1197.2516,39.790176)" />
    <use
       id="use3823"
       xlink:href="#path3345"
       x="0"
       y="0"
       width="100%"
       height="100%"
       transform="translate(1142.9772,58.338463)" />
    <use
       id="use3859"
       xlink:href="#path3345"
       x="0"
       y="0"
       width="100%"
       height="100%"
       transform="translate(1247.2538,4.2507407)" />
    <use
       id="use3861"
       xlink:href="#path3345"
       x="0"
       y="0"
       width="100%"
       height="100%"
       transform="translate(1407.1089,36.260773)" />
    <use
       id="use3871"
       xlink:href="#path3345"
       x="0"
       y="0"
       width="100%"
       height="100%"
       transform="translate(1392.2795,11.070539)" />
    <use
       id="use3883"
       xlink:href="#path3345"
       x="0"
       y="0"
       width="100%"
       height="100%"
       transform="translate(1373.0613,6.8620316)" />
    <use
       id="use3885"
       xlink:href="#path3345"
       x="0"
       y="0"
       width="100%"
       height="100%"
       transform="translate(1348.3098,46.541134)" />
    <use
       id="use3891"
       xlink:href="#path3345"
       x="0"
       y="0"
       width="100%"
       height="100%"
       transform="translate(1512.1361,57.895931)" />
    <use
       id="use3893"
       xlink:href="#path3345"
       x="0"
       y="0"
       width="100%"
       height="100%"
       transform="translate(1506.5835,83.023566)" />
    <use
       id="use3897"
       xlink:href="#path3345"
       x="0"
       y="0"
       width="100%"
       height="100%"
       transform="translate(1514.3705,82.044662)" />
    <use
       id="use3901"
       xlink:href="#path3345"
       x="0"
       y="0"
       width="100%"
       height="100%"
       transform="translate(1513.6325,15.993247)" />
    <use
       id="use3909"
       xlink:href="#path3345"
       x="0"
       y="0"
       width="100%"
       height="100%"
       transform="translate(1605.6461,28.618099)" />
    <use
       id="use3913"
       xlink:href="#path3345"
       x="0"
       y="0"
       width="100%"
       height="100%"
       transform="translate(1602.8428,-0.67648288)" />
    <use
       id="use3921"
       xlink:href="#path3345"
       x="0"
       y="0"
       width="100%"
       height="100%"
       transform="translate(1594.2054,21.60861)" />
    <use
       id="use3925"
       xlink:href="#path3345"
       x="0"
       y="0"
       width="100%"
       height="100%"
       transform="translate(1692.9065,18.836052)" />
    <use
       id="use3941"
       xlink:href="#path3345"
       x="0"
       y="0"
       width="100%"
       height="100%"
       transform="translate(1665.7021,31.154069)" />
    <use
       id="use3993"
       xlink:href="#path3345"
       x="0"
       y="0"
       width="100%"
       height="100%"
       transform="translate(1004.3781,23.395437)" />
    <use
       id="use3995"
       xlink:href="#path3345"
       x="0"
       y="0"
       width="100%"
       height="100%"
       transform="translate(1113.1036,5.5487356)" />
    <use
       id="use3997"
       xlink:href="#path3345"
       x="0"
       y="0"
       width="100%"
       height="100%"
       transform="translate(1086.3163,0.75931638)" />
    <use
       id="use4005"
       xlink:href="#path3345"
       x="0"
       y="0"
       width="100%"
       height="100%"
       transform="translate(1039.7622,55.024586)" />
    <use
       id="use4007"
       xlink:href="#path3345"
       x="0"
       y="0"
       width="100%"
       height="100%"
       transform="translate(1070.5696,45.556022)" />
    <use
       id="use4009"
       xlink:href="#path3345"
       x="0"
       y="0"
       width="100%"
       height="100%"
       transform="translate(1009.3928,6.7888316)" />
    <use
       id="use4017"
       xlink:href="#path3345"
       x="0"
       y="0"
       width="100%"
       height="100%"
       transform="translate(948.38638,23.082326)" />
    <use
       id="use4019"
       xlink:href="#path3345"
       x="0"
       y="0"
       width="100%"
       height="100%"
       transform="translate(931.02099,62.867776)" />
    <use
       id="use4021"
       xlink:href="#path3345"
       x="0"
       y="0"
       width="100%"
       height="100%"
       transform="translate(921.81532,62.778717)" />
    <use
       id="use4025"
       xlink:href="#path3345"
       x="0"
       y="0"
       width="100%"
       height="100%"
       transform="translate(908.03559,4.0208672)" />
    <use
       id="use4029"
       xlink:href="#path3345"
       x="0"
       y="0"
       width="100%"
       height="100%"
       transform="translate(802.9286,-2.6184987)" />
    <use
       id="use4031"
       xlink:href="#path3345"
       x="0"
       y="0"
       width="100%"
       height="100%"
       transform="translate(827.55322,0.80919713)" />
    <use
       id="use4033"
       xlink:href="#path3345"
       x="0"
       y="0"
       width="100%"
       height="100%"
       transform="translate(862.54611,74.591104)" />
    <use
       id="use4035"
       xlink:href="#path3345"
       x="0"
       y="0"
       width="100%"
       height="100%"
       transform="translate(771.4644,68.568427)" />
    <use
       id="use4037"
       xlink:href="#path3345"
       x="0"
       y="0"
       width="100%"
       height="100%"
       transform="translate(771.32423,67.371359)" />
    <use
       id="use4039"
       xlink:href="#path3345"
       x="0"
       y="0"
       width="100%"
       height="100%"
       transform="translate(827.02667,28.414495)" />
    <use
       id="use4041"
       xlink:href="#path3345"
       x="0"
       y="0"
       width="100%"
       height="100%"
       transform="translate(821.53694,12.295916)" />
    <use
       id="use4043"
       xlink:href="#path3345"
       x="0"
       y="0"
       width="100%"
       height="100%"
       transform="translate(777.98879,48.859949)" />
    <use
       id="use4045"
       xlink:href="#path3345"
       x="0"
       y="0"
       width="100%"
       height="100%"
       transform="translate(835.5418,54.035101)" />
    <use
       id="use4049"
       xlink:href="#path3345"
       x="0"
       y="0"
       width="100%"
       height="100%"
       transform="translate(782.18106,46.309576)" />
    <use
       id="use4053"
       xlink:href="#path3345"
       x="0"
       y="0"
       width="100%"
       height="100%"
       transform="translate(726.8279,18.25216)" />
    <use
       id="use4057"
       xlink:href="#path3345"
       x="0"
       y="0"
       width="100%"
       height="100%"
       transform="translate(654.3048,31.787766)" />
    <use
       id="use4061"
       xlink:href="#path3345"
       x="0"
       y="0"
       width="100%"
       height="100%"
       transform="translate(658.89221,56.206975)" />
    <use
       id="use4065"
       xlink:href="#path3345"
       x="0"
       y="0"
       width="100%"
       height="100%"
       transform="translate(-147.84121,44.022828)" />
    <use
       id="use4069"
       xlink:href="#path3345"
       x="0"
       y="0"
       width="100%"
       height="100%"
       transform="translate(-288.67363,1.1316353)" />
    <use
       id="use4071"
       xlink:href="#path3345"
       x="0"
       y="0"
       width="100%"
       height="100%"
       transform="translate(-251.17625,26.470677)" />
    <use
       id="use4073"
       xlink:href="#path3345"
       x="0"
       y="0"
       width="100%"
       height="100%"
       transform="translate(-222.53538,-1.2047357)" />
    <use
       id="use4083"
       xlink:href="#path3345"
       x="0"
       y="0"
       width="100%"
       height="100%"
       transform="translate(-224.03238,35.915199)" />
    <use
       id="use4085"
       xlink:href="#path3345"
       x="0"
       y="0"
       width="100%"
       height="100%"
       transform="translate(-229.72147,9.2635766)" />
    <use
       id="use4087"
       xlink:href="#path3345"
       x="0"
       y="0"
       width="100%"
       height="100%"
       transform="translate(-282.12279,56.049863)" />
    <use
       id="use4089"
       xlink:href="#path3345"
       x="0"
       y="0"
       width="100%"
       height="100%"
       transform="translate(-304.5046,3.096899)" />
    <use
       id="use4091"
       xlink:href="#path3345"
       x="0"
       y="0"
       width="100%"
       height="100%"
       transform="translate(-299.16021,32.14824)" />
    <use
       id="use4095"
       xlink:href="#path3345"
       x="0"
       y="0"
       width="100%"
       height="100%"
       transform="translate(-186.58544,27.13015)" />
    <use
       id="use4103"
       xlink:href="#path3345"
       x="0"
       y="0"
       width="100%"
       height="100%"
       transform="translate(1332.3609,10.599413)" />
    <use
       id="use4105"
       xlink:href="#path3345"
       x="0"
       y="0"
       width="100%"
       height="100%"
       transform="translate(1255.8854,9.5486422)" />
    <use
       id="use4111"
       xlink:href="#path3345"
       x="0"
       y="0"
       width="100%"
       height="100%"
       transform="translate(1313.2999,86.704173)" />
    <use
       id="use4113"
       xlink:href="#path3345"
       x="0"
       y="0"
       width="100%"
       height="100%"
       transform="translate(1273.2557,27.885041)" />
    <use
       id="use4115"
       xlink:href="#path3345"
       x="0"
       y="0"
       width="100%"
       height="100%"
       transform="translate(1372.2478,32.452451)" />
    <use
       id="use4117"
       xlink:href="#path3345"
       x="0"
       y="0"
       width="100%"
       height="100%"
       transform="translate(1348.7772,71.251476)" />
    <use
       id="use4119"
       xlink:href="#path3345"
       x="0"
       y="0"
       width="100%"
       height="100%"
       transform="matrix(1.9523809,0,0,1.9523809,2195.0088,698.05798)" />
    <use
       id="use4121"
       xlink:href="#path3345"
       x="0"
       y="0"
       width="100%"
       height="100%"
       transform="translate(1269.9598,100.86299)" />
    <use
       id="use4123"
       xlink:href="#path3345"
       x="0"
       y="0"
       width="100%"
       height="100%"
       transform="translate(1311.752,59.035099)" />
    <use
       id="use4127"
       xlink:href="#path3345"
       x="0"
       y="0"
       width="100%"
       height="100%"
       transform="translate(1301.3991,49.196147)" />
    <use
       id="use4129"
       xlink:href="#path3345"
       x="0"
       y="0"
       width="100%"
       height="100%"
       transform="translate(1317.8843,31.972903)" />
    <use
       id="use4131"
       xlink:href="#path3345"
       x="0"
       y="0"
       width="100%"
       height="100%"
       transform="translate(1457.2351,67.938294)" />
    <use
       id="use4143"
       xlink:href="#path3345"
       x="0"
       y="0"
       width="100%"
       height="100%"
       transform="translate(1649.7057,37.711532)" />
    <use
       id="use4145"
       xlink:href="#path3345"
       x="0"
       y="0"
       width="100%"
       height="100%"
       transform="translate(1638.8263,57.642748)" />
    <use
       id="use4149"
       xlink:href="#path3345"
       x="0"
       y="0"
       width="100%"
       height="100%"
       transform="translate(1714.56,12.061865)" />
    <use
       id="use4151"
       xlink:href="#path3345"
       x="0"
       y="0"
       width="100%"
       height="100%"
       transform="translate(1668.7154,18.112687)" />
    <use
       id="use4153"
       xlink:href="#path3345"
       x="0"
       y="0"
       width="100%"
       height="100%"
       transform="translate(1678.049,-0.49146275)" />
    <use
       id="use4155"
       xlink:href="#path3345"
       x="0"
       y="0"
       width="100%"
       height="100%"
       transform="translate(1788.9813,37.60408)" />
    <use
       id="use4163"
       xlink:href="#path3345"
       x="0"
       y="0"
       width="100%"
       height="100%"
       transform="translate(1666.5016,43.457182)" />
    <use
       id="use4167"
       xlink:href="#path3345"
       x="0"
       y="0"
       width="100%"
       height="100%"
       transform="translate(1671.5545,41.332424)" />
    <use
       id="use4171"
       xlink:href="#path3345"
       x="0"
       y="0"
       width="100%"
       height="100%"
       transform="translate(1802.0699,56.035797)" />
    <use
       id="use4173"
       xlink:href="#path3345"
       x="0"
       y="0"
       width="100%"
       height="100%"
       transform="translate(1728.0332,86.498585)" />
    <use
       id="use4177"
       xlink:href="#path3345"
       x="0"
       y="0"
       width="100%"
       height="100%"
       transform="translate(1737.4958,43.46405)" />
    <use
       id="use4179"
       xlink:href="#path3345"
       x="0"
       y="0"
       width="100%"
       height="100%"
       transform="translate(1856.0258,21.383101)" />
    <use
       id="use4183"
       xlink:href="#path3345"
       x="0"
       y="0"
       width="100%"
       height="100%"
       transform="translate(1752.1879,42.445179)" />
    <use
       id="use4185"
       xlink:href="#path3345"
       x="0"
       y="0"
       width="100%"
       height="100%"
       transform="translate(1803.9735,60.675019)" />
    <use
       id="use4187"
       xlink:href="#path3345"
       x="0"
       y="0"
       width="100%"
       height="100%"
       transform="translate(1719.7154,52.243013)" />
    <use
       id="use4189"
       xlink:href="#path3345"
       x="0"
       y="0"
       width="100%"
       height="100%"
       transform="translate(1710.5835,45.750869)" />
    <use
       id="use4193"
       xlink:href="#path3345"
       x="0"
       y="0"
       width="100%"
       height="100%"
       transform="translate(1686.419,17.447328)" />
    <use
       id="use4195"
       xlink:href="#path3345"
       x="0"
       y="0"
       width="100%"
       height="100%"
       transform="translate(1754.3062,17.293571)" />
    <use
       id="use4197"
       xlink:href="#path3345"
       x="0"
       y="0"
       width="100%"
       height="100%"
       transform="translate(1713.8971,59.245994)" />
    <use
       id="use4199"
       xlink:href="#path3345"
       x="0"
       y="0"
       width="100%"
       height="100%"
       transform="translate(1641.995,42.178536)" />
    <use
       id="use4201"
       xlink:href="#path3345"
       x="0"
       y="0"
       width="100%"
       height="100%"
       transform="translate(1689.7881,18.682986)" />
    <use
       id="use4203"
       xlink:href="#path3345"
       x="0"
       y="0"
       width="100%"
       height="100%"
       transform="translate(1684.934,107.38556)" />
    <use
       id="use4211"
       xlink:href="#path3345"
       x="0"
       y="0"
       width="100%"
       height="100%"
       transform="translate(1619.3649,1.6963759)" />
    <use
       id="use4217"
       xlink:href="#path3345"
       x="0"
       y="0"
       width="100%"
       height="100%"
       transform="translate(1589.8283,23.792783)" />
    <use
       id="use4223"
       xlink:href="#path3345"
       x="0"
       y="0"
       width="100%"
       height="100%"
       transform="translate(1478.0554,34.406013)" />
    <use
       id="use4225"
       xlink:href="#path3345"
       x="0"
       y="0"
       width="100%"
       height="100%"
       transform="translate(1517.9041,80.709515)" />
    <use
       id="use4227"
       xlink:href="#path3345"
       x="0"
       y="0"
       width="100%"
       height="100%"
       transform="translate(1510.2038,10.132614)" />
    <use
       id="use4231"
       xlink:href="#path3345"
       x="0"
       y="0"
       width="100%"
       height="100%"
       transform="translate(1487.029,-5.9570704)" />
    <use
       id="use4235"
       xlink:href="#path3345"
       x="0"
       y="0"
       width="100%"
       height="100%"
       transform="translate(1556.1115,56.017984)" />
    <use
       id="use4243"
       xlink:href="#path3345"
       x="0"
       y="0"
       width="100%"
       height="100%"
       transform="translate(1393.7165,14.1797)" />
    <use
       id="use4245"
       xlink:href="#path3345"
       x="0"
       y="0"
       width="100%"
       height="100%"
       transform="translate(1406.9441,68.053998)" />
    <use
       id="use4247"
       xlink:href="#path3345"
       x="0"
       y="0"
       width="100%"
       height="100%"
       transform="translate(1422.6338,48.832638)" />
    <use
       id="use4249"
       xlink:href="#path3345"
       x="0"
       y="0"
       width="100%"
       height="100%"
       transform="translate(1460.869,49.691157)" />
    <use
       id="use4253"
       xlink:href="#path3345"
       x="0"
       y="0"
       width="100%"
       height="100%"
       transform="translate(1452.5375,40.138823)" />
    <use
       id="use4255"
       xlink:href="#path3345"
       x="0"
       y="0"
       width="100%"
       height="100%"
       transform="translate(1363.2242,32.337381)" />
    <use
       id="use4257"
       xlink:href="#path3345"
       x="0"
       y="0"
       width="100%"
       height="100%"
       transform="translate(1378.0937,8.8059005)" />
    <use
       id="use4261"
       xlink:href="#path3345"
       x="0"
       y="0"
       width="100%"
       height="100%"
       transform="translate(1382.3647,29.864164)" />
    <use
       id="use4265"
       xlink:href="#path3345"
       x="0"
       y="0"
       width="100%"
       height="100%"
       transform="translate(1339.4037,18.756127)" />
    <use
       id="use4271"
       xlink:href="#path3345"
       x="0"
       y="0"
       width="100%"
       height="100%"
       transform="translate(1307.5408,9.4486788)" />
    <use
       id="use4275"
       xlink:href="#path3345"
       x="0"
       y="0"
       width="100%"
       height="100%"
       transform="translate(1277.926,-3.4012973)" />
    <use
       id="use4277"
       xlink:href="#path3345"
       x="0"
       y="0"
       width="100%"
       height="100%"
       transform="translate(1385.2823,50.929985)" />
    <use
       id="use4279"
       xlink:href="#path3345"
       x="0"
       y="0"
       width="100%"
       height="100%"
       transform="translate(1315.2012,69.180041)" />
    <use
       id="use4281"
       xlink:href="#path3345"
       x="0"
       y="0"
       width="100%"
       height="100%"
       transform="translate(1312.0329,85.162534)" />
    <use
       id="use4283"
       xlink:href="#path3345"
       x="0"
       y="0"
       width="100%"
       height="100%"
       transform="translate(1390.5276,2.5250996)" />
    <use
       id="use4285"
       xlink:href="#path3345"
       x="0"
       y="0"
       width="100%"
       height="100%"
       transform="translate(1284.3331,54.420915)" />
    <use
       id="use4287"
       xlink:href="#path3345"
       x="0"
       y="0"
       width="100%"
       height="100%"
       transform="translate(1266.1266,-4.1998337)" />
    <use
       id="use4289"
       xlink:href="#path3345"
       x="0"
       y="0"
       width="100%"
       height="100%"
       transform="translate(1293.4309,16.182109)" />
    <use
       id="use4291"
       xlink:href="#path3345"
       x="0"
       y="0"
       width="100%"
       height="100%"
       transform="translate(1349.0739,63.699966)" />
    <use
       id="use4293"
       xlink:href="#path3345"
       x="0"
       y="0"
       width="100%"
       height="100%"
       transform="translate(1227.5823,-1.4450182)" />
    <use
       id="use4295"
       xlink:href="#path3345"
       x="0"
       y="0"
       width="100%"
       height="100%"
       transform="translate(1345.4189,35.489378)" />
    <use
       id="use4297"
       xlink:href="#path3345"
       x="0"
       y="0"
       width="100%"
       height="100%"
       transform="translate(1263.0054,95.67312)" />
    <use
       id="use4299"
       xlink:href="#path3345"
       x="0"
       y="0"
       width="100%"
       height="100%"
       transform="translate(1218.2311,43.869789)" />
    <use
       id="use4303"
       xlink:href="#path3345"
       x="0"
       y="0"
       width="100%"
       height="100%"
       transform="translate(1271.2126,75.58025)" />
    <use
       id="use4305"
       xlink:href="#path3345"
       x="0"
       y="0"
       width="100%"
       height="100%"
       transform="translate(1163.2752,20.992652)" />
    <use
       id="use4311"
       xlink:href="#path3345"
       x="0"
       y="0"
       width="100%"
       height="100%"
       transform="translate(1210.6526,25.721593)" />
    <use
       id="use4313"
       xlink:href="#path3345"
       x="0"
       y="0"
       width="100%"
       height="100%"
       transform="translate(1181.4826,22.287246)" />
    <use
       id="use4315"
       xlink:href="#path3345"
       x="0"
       y="0"
       width="100%"
       height="100%"
       transform="translate(1160.5323,47.35219)" />
    <use
       id="use4317"
       xlink:href="#path3345"
       x="0"
       y="0"
       width="100%"
       height="100%"
       transform="translate(1169.531,118.16275)" />
    <use
       id="use4319"
       xlink:href="#path3345"
       x="0"
       y="0"
       width="100%"
       height="100%"
       transform="translate(1253.6479,12.032596)" />
    <use
       id="use4321"
       xlink:href="#path3345"
       x="0"
       y="0"
       width="100%"
       height="100%"
       transform="translate(1281.7056,39.23414)" />
    <use
       id="use4323"
       xlink:href="#path3345"
       x="0"
       y="0"
       width="100%"
       height="100%"
       transform="translate(1190.1586,110.04096)" />
    <use
       id="use4325"
       xlink:href="#path3345"
       x="0"
       y="0"
       width="100%"
       height="100%"
       transform="translate(1153.4952,23.571389)" />
    <use
       id="use4327"
       xlink:href="#path3345"
       x="0"
       y="0"
       width="100%"
       height="100%"
       transform="translate(1190.3275,102.91948)" />
  </g>
</svg>
