<?xml version="1.0" encoding="UTF-8" standalone="no"?>
<!-- Created with Inkscape (http://www.inkscape.org/) -->

<svg
   xmlns:dc="http://purl.org/dc/elements/1.1/"
   xmlns:cc="http://creativecommons.org/ns#"
   xmlns:rdf="http://www.w3.org/1999/02/22-rdf-syntax-ns#"
   xmlns:svg="http://www.w3.org/2000/svg"
   xmlns="http://www.w3.org/2000/svg"
   xmlns:sodipodi="http://sodipodi.sourceforge.net/DTD/sodipodi-0.dtd"
   xmlns:inkscape="http://www.inkscape.org/namespaces/inkscape"
   version="1.1"
   id="svg2"
   xml:space="preserve"
   width="219.20284"
   height="192.93663"
   viewBox="0 0 219.20284 192.93663"
   sodipodi:docname="mosquito.svg"
   inkscape:version="0.92.2 2405546, 2018-03-11"><metadata
     id="metadata8"><rdf:RDF><cc:Work
         rdf:about=""><dc:format>image/svg+xml</dc:format><dc:type
           rdf:resource="http://purl.org/dc/dcmitype/StillImage" /><dc:title></dc:title></cc:Work></rdf:RDF></metadata><defs
     id="defs6" /><sodipodi:namedview
     pagecolor="#ffffff"
     bordercolor="#666666"
     borderopacity="1"
     objecttolerance="10"
     gridtolerance="10"
     guidetolerance="10"
     inkscape:pageopacity="0"
     inkscape:pageshadow="2"
     inkscape:window-width="1366"
     inkscape:window-height="716"
     id="namedview4"
     showgrid="false"
     fit-margin-top="0"
     fit-margin-left="0"
     fit-margin-right="0"
     fit-margin-bottom="0"
     inkscape:zoom="1.3178714"
     inkscape:cx="128.6764"
     inkscape:cy="191.20512"
     inkscape:window-x="0"
     inkscape:window-y="0"
     inkscape:window-maximized="1"
     inkscape:current-layer="g12" /><g
     id="g10"
     inkscape:groupmode="layer"
     inkscape:label="ink_ext_XXXXXX"
     transform="matrix(1.3333333,0,0,-1.3333333,0,254.13658)"><g
       id="g12"
       transform="scale(0.1)"><path
         d="m 1619.6825,556.33969 -10.5935,14.05352 0.1973,0.15315 10.5317,-14.10447 z m -29.7015,39.32882 -10.6377,14.02141 0.3622,0.27154 10.5818,-14.06294 z m -29.8252,39.22868 -10.679,13.98342 0.5272,0.40348 10.623,-14.03054 z m -29.9548,39.13179 -10.732,13.94513 0.6862,0.52129 10.6761,-13.98342 z m -30.105,38.99926 -10.8027,13.90979 0.8512,0.66265 10.7408,-13.95691 z m -30.2964,38.86967 -10.8675,13.81555 1.0161,0.79518 10.8027,-13.86562 z m -30.5085,38.62522 -10.9823,13.7596 1.1662,0.92476 10.9294,-13.79788 z m -30.8855,38.40729 -11.1384,13.62117 1.3165,1.08086 11.0854,-13.67418 z m -31.4185,37.96258 -11.4211,13.36494 1.449,1.24579 11.3769,-13.42385 z m -32.4935,36.9524 -12.2575,12.53442 1.4696,1.52557 12.2841,-12.66695 z m -34.0249,35.6536 -10.1136,14.47231 1.9379,1.28702 9.9928,-14.43108 z m -27.2424,41.17275 -9.1917,15.04367 2.1735,1.30469 9.1181,-15.0525 z m -25.3692,42.30365 -8.8413,15.2204 2.3709,1.3665 8.7794,-15.2468 z m -24.5741,42.7308 -8.6527,15.3322 2.5799,1.449 8.5791,-15.3646 z m -24.0969,43.0046 -8.5203,15.4088 2.7714,1.5197 8.4525,-15.4324 z m -23.7671,43.1842 -8.4231,15.4501 2.9569,1.6022 8.3583,-15.4855 z m -23.5227,43.311 -8.3494,15.4913 3.1483,1.6875 8.2846,-15.5207 z m -169.09102,233.5773 c -2.20295,1.1986 -4.38528,2.3885 -6.54995,3.5606 16.99627,-6.706 33.49487,-12.8053 49.57227,-18.4246 2.2618,-4.2528 4.5443,-8.5026 6.8091,-12.7553 -17.2319,9.6806 -33.9896,18.9783 -49.82848,27.6193 v 0.01 z m -249.64001,-25.8493 -5.35717,4.3558 11.11782,13.6182 5.30121,-4.3087 z m 5.25703,-140.7796 -4.23213,-1.022 -4.12022,17.0405 4.32932,1.0219 z m 7.44232,-30.6322 4.23802,-16.9963 -3.97591,-1.0101 -4.33227,16.9903 z m 12.06909,-47.5283 4.46775,-16.9403 -3.70496,-0.9925 -4.56494,16.9285 z m -35.09403,124.8995 -3.91111,17.0935 4.59143,1.0219 3.81982,-17.0846 z m -10.76441,47.8965 -2.91566,13.4739 -0.51245,2.3767 -0.95717,-1.1781 -5.48675,4.4619 5.59278,6.8533 5.46025,-4.4383 -3.29854,-4.079 3.27203,0.6921 2.03802,-9.6482 1.56975,-7.4865 z m -61.98885,-8.3701 -3.51058,0.4477 1.13093,8.7735 6.97404,-0.8806 -1.08086,-8.7794 z m -25.78745,26.3795 -4.57966,-3.0806 -4.91835,7.3539 5.83134,3.9259 4.96252,-7.3275 z m -78.18406,-202.6654 -3.96707,-0.2238 -1.06024,17.329 4.0672,0.2357 z m 2.69184,-48.5473 -3.67551,-0.215 -1.06613,17.332 3.78153,0.2179 z m 2.69478,-48.5503 -3.39277,-0.1973 -1.06025,17.3379 3.48997,0.1973 z m 2.69184,-48.5473 -3.10121,-0.1856 -1.06908,17.3379 3.20724,0.1856 z m 2.68889,-48.55326 -2.81258,-0.15609 -1.06614,17.32613 2.92156,0.17082 z m 2.69479,-48.55028 -2.52986,-0.14431 -1.06319,17.33202 2.63588,0.1502 z m -4.97431,-48.37651 -2.21767,0.37992 2.88622,17.12586 2.3178,-0.40348 z m -8.35824,-47.90235 -1.932,0.3328 2.88327,17.12881 2.03213,-0.35636 z m -8.3553,-47.8994 -1.64927,0.28273 2.88033,17.12291 1.75234,-0.29745 z m -8.36119,-47.89941 -1.36654,0.23856 2.88622,17.12291 1.46667,-0.25328 z m -8.3553,-47.90235 -1.08381,0.1826 2.88327,17.13175 1.18394,-0.2091 z m -8.35825,-47.8994 -0.79813,0.13842 2.88622,17.12292 0.89826,-0.15315 z m -8.35825,-47.89911 -0.51834,0.0886 2.88622,17.12174 0.61847,-0.1022 z m -8.3553,-47.90324 -0.23266,0.0415 2.88327,17.12881 0.32985,-0.0645 z m 42.00623,692.06801 4.35288,0.2592 0.96305,-17.3467 -4.2498,-0.2474 z m -2.98046,48.5385 4.6415,0.268 0.96306,-17.3379 -4.53843,-0.268 z m -2.97752,48.5326 4.92424,0.2828 0.96305,-17.335 -4.8241,-0.2857 z m -2.9834,48.5297 5.2158,0.3034 0.96305,-17.338 -5.10978,-0.2974 z m -2.97457,48.5297 5.49559,0.3239 0.96305,-17.3408 -5.3984,-0.3152 z m -2.98046,48.5355 5.78715,0.3358 0.96011,-17.335 -5.68113,-0.3328 z m -8.11086,-100.134 c 1.30174,-0.6096 2.63883,-1.2635 3.96413,-1.8996 l 2.12343,-28.977 c -1.85837,11.6921 -4.32932,22.427 -6.08756,30.8766 m -115.42213,-75.987 c 0.21499,-3.0983 1.20161,-6.8238 2.76547,-10.95 -15.01422,-2.2265 -30.51438,-3.6872 -45.94974,-4.7004 l -3.00402,104.9523 c 10.79386,-10.8616 21.7173,-21.6025 32.88519,-32.093 8.25222,-7.7368 16.5604,-15.3676 25.00405,-22.8865 -7.2656,-12.8584 -12.31943,-25.3221 -11.70095,-34.3224 m 20.37138,190.4019 c 0.1826,-8.5585 1.16627,-16.9933 2.78903,-25.1189 l -41.39658,21.1459 c 14.88757,-15.6739 30.36711,-28.335 45.62282,-38.6488 l -1.75529,-15.4471 -49.26005,25.1601 c 15.52372,-16.3395 31.68653,-29.4394 47.57545,-39.977 l -7.89587,-69.3988 c -7.06239,6.0081 -14.07177,12.0986 -20.99869,18.2362 -14.1778,12.5816 -28.06109,25.5047 -41.69109,38.6871 l -4.32049,150.8372 z m 60.44561,241.2906 49.79017,-109.8176 c -22.39173,-10.2991 -40.58373,-21.5671 -53.61588,-30.4967 -6.57645,-3.8198 -12.48435,-7.9606 -17.7679,-12.3783 z M 654.7646,1627.3844 c -0.48595,-1.502 -0.96306,-3.0158 -1.45784,-4.4913 -0.28862,-0.8482 -0.58313,-1.6817 -0.87764,-2.521 -4.22919,0.3445 -8.39065,0.6361 -12.47552,0.8747 z m 38.49269,35.7537 c 5.45731,21.6319 10.63482,43.2579 15.7181,64.8987 6.82089,29.1095 13.41796,58.2397 19.92961,87.3875 l 72.7886,-245.1163 c -33.04422,4.9802 -60.94333,9.0445 -81.31766,11.9631 l 24.65359,24.6594 c -15.82707,3.1808 -30.82656,5.7725 -45.20462,7.9195 l 40.33634,15.6739 c -16.7754,-0.9513 -32.73205,-3.3574 -47.75215,-6.7031 l -2.58287,18.0919 12.73175,5.2776 c -4.50309,-0.2592 -8.9296,-0.6656 -13.32372,-1.1397 l -0.13547,0.9336 c 1.41365,5.3895 2.79197,10.7703 4.1585,16.1539 m 143.88376,-114.6387 -1.16627,-1.4048 c -24.81557,4.0436 -49.64291,8.0019 -74.50266,11.7481 25.24556,-3.2721 50.46166,-6.765 75.66893,-10.3433 m -5.94325,-26.8241 11.11782,13.6182 4.81821,-3.917 -11.05892,-13.6624 z m -53.30959,-97.2861 c 5.34539,-2.3443 10.94406,-4.8271 15.60324,-6.9211 v -30.6174 l -30.39068,18.9577 z m 17.977,88.1974 c -1.3253,-6.3585 -2.27068,-12.075 -2.93628,-17.3114 l -27.14515,-32.6878 c 6.25543,16.955 22.24447,39.2731 30.08143,49.9992 m -70.17627,-97.5187 c -0.73628,3.914 -1.47551,7.8222 -2.19706,11.7363 2.38849,-2.0587 4.83588,-4.1409 7.35985,-6.2702 l -4.99492,-6.011 -0.16787,0.5449 m -17.85037,154.6658 1.79947,1.8024 c 9.23589,-5.5633 18.36576,-10.9588 27.43967,-16.26 -11.20029,5.6281 -21.09588,10.5465 -29.23914,14.4576 m -0.25917,-115.7697 -5.29827,-1.0072 -3.2838,17.2201 5.3984,1.0043 z m 9.33897,-48.1291 -5.03615,-1.0219 -3.49586,17.1759 5.1304,1.022 z m 99.24755,87.2816 -11.06187,-13.6654 -5.0391,4.0996 11.11782,13.6153 z m -42.02979,-51.9225 -5.19813,4.2263 11.11487,13.6152 5.14218,-4.1791 z m 21.97353,3.9818 c 0.36225,-1.5167 0.71861,-3.0335 1.06024,-4.5561 1.36359,-6.0257 -1.68166,-7.407 -2.683,-7.8546 -2.49452,-1.1398 -6.13174,-1.0632 -10.05463,-0.1473 l 11.30041,14.1955 c 0.1237,-0.5478 0.25328,-1.0897 0.37698,-1.6375 m 17.93577,90.9659 c 2.83909,-1.7553 5.74004,-3.384 8.61742,-5.0774 l -0.14726,-0.1679 c -2.82731,1.7435 -5.67819,3.434 -8.47016,5.2453 m -118.1287,-16.6782 2.94807,-17.2584 -5.57217,-0.9807 -3.0423,17.2731 z m -27.00673,-74.8767 2.43267,18.9047 6.41741,-0.8099 -2.33548,-18.9136 z m -4.38528,-34.0161 6.69425,-0.8482 -2.33253,-18.9136 -6.79734,0.8571 z m -13.20002,3.1012 -42.36258,26.4 46.85977,21.4022 0.52718,-11.7864 z m -70.25875,6.7767 23.22521,-35.6359 c -1.00134,-0.321 -2.01741,-0.6362 -3.04525,-0.9484 l -29.18907,26.244 c 1.95556,2.739 5.93441,7.2921 9.00911,10.3403 m -15.29694,58.3192 -5.26293,-3.5429 -8.68515,12.9938 5.18341,3.487 z m 112.39161,37.6475 6.14057,-0.7716 -2.33548,-18.9195 -6.24071,0.7923 z m -96.61461,-60.9434 8.76467,-12.9437 -5.47497,-3.6844 -8.6881,12.9939 z m 8.04901,41.7383 c -2.7154,-3.973 -6.82384,-9.4715 -11.26508,-14.2927 l -9.9221,14.2927 z m -24.76256,66.5066 75.64831,-10.0517 -40.04477,-22.7746 -54.00169,6.6472 z m 121.57154,16.6694 3.17484,-21.1106 1.31647,-8.7205 -2.32959,-0.3652 -0.0648,-0.5007 -1.74646,0.2209 -1.70228,-0.268 -0.0766,0.4948 -2.43267,0.3033 1.13387,8.7765 z m -167.19437,-12.3548 c 0.27685,0.2474 0.54191,0.5007 0.82169,0.7422 2.30309,1.9556 4.65623,3.8493 7.04473,5.7017 4.38528,3.4017 8.91781,6.6001 13.73014,9.3508 14.65785,8.8206 30.6469,15.1821 47.03354,19.5644 -7.9371,-3.0069 -15.89481,-5.9197 -23.46671,-9.6983 -7.68381,-3.4958 -15.0525,-7.6337 -22.12961,-12.181 -0.98956,-0.6391 -1.95556,-1.3076 -2.9304,-1.9644 -6.39974,-4.3146 -12.53442,-9.0297 -18.24501,-14.1925 z m -28.64127,-266.9013 25.83752,19.5497 7.05356,-9.2565 -8.0814,-13.6065 z m 3.61071,57.58 c 2.00563,-2.0056 6.36146,-6.223 10.44928,-10.1607 l -40.46887,-32.2932 -13.42679,9.0651 c 15.99199,12.5226 38.33071,29.8458 43.44638,33.3888 m 10.83509,189.3328 c -10.38448,-13.1058 -18.02706,-28.4057 -21.90873,-44.6892 -1.55208,-6.7149 -2.39733,-13.6124 -2.3561,-20.5187 0.0118,-1.4696 0.009,-2.9333 0.10308,-4.397 0.33869,-4.8477 1.12798,-9.7778 2.73013,-14.4193 1.13681,-3.2897 2.67122,-6.438 4.79465,-9.283 -2.58287,2.8008 -4.45596,6.2024 -5.84606,9.7689 -0.16198,0.4212 -0.35047,0.8364 -0.50361,1.2635 -1.41955,4.0377 -2.39439,8.2463 -2.89211,12.5138 -0.20027,1.8495 -0.29746,3.702 -0.35636,5.5574 -0.21794,6.7267 0.41821,13.4739 1.67577,20.0887 3.41928,16.8902 11.34754,32.6584 21.76737,46.2884 4.02009,5.1451 8.45838,9.9457 13.20002,14.4046 l 0.31808,-4.3588 c -3.82571,-3.8463 -7.43643,-7.8959 -10.72613,-12.2193 m 5.86373,-64.1329 9.68061,10.6054 0.91593,-12.5197 c -3.2897,0.695 -6.80028,1.3488 -10.59654,1.9143 m -16.32773,-52.5468 c -0.21499,4.7151 0.27389,14.7403 4.87711,15.3205 3.1984,0.3947 13.75665,-1.3253 24.8892,-3.4605 l 1.09264,-14.9612 c -8.747,-1.8407 -19.28758,-1.7582 -30.85895,3.1012 m 2.37082,-40.7428 -32.28439,-17.4409 29.17729,24.4238 z m -41.62336,94.7386 c -0.38581,3.5342 -0.44471,7.0919 -0.33574,10.6466 0.15609,5.0332 0.71272,10.0546 1.65221,14.9995 3.42223,16.8903 11.3446,32.6584 21.77031,46.2914 5.28944,6.7767 11.30926,12.9585 17.80619,18.5513 6.52638,5.5427 13.33844,10.8115 20.77192,15.0525 14.66374,8.8235 30.64985,15.185 47.03648,19.5703 -7.93709,-3.0129 -15.8948,-5.9227 -23.46375,-9.6983 -7.68676,-3.4988 -15.06134,-7.6367 -22.13257,-12.1839 -14.09828,-9.124 -27.07742,-20.1388 -37.22924,-33.4713 -10.38154,-13.1058 -18.02707,-28.4027 -21.91462,-44.6863 -1.16922,-5.0833 -1.90844,-10.2755 -2.21179,-15.4913 -0.1826,-3.1366 -0.24444,-6.282 -0.0353,-9.4273 0.18849,-2.7184 0.53012,-5.4603 1.06319,-8.1639 1.08675,-5.5486 3.02169,-10.9293 6.46159,-15.5385 -2.88916,3.1278 -4.92718,7.0065 -6.34968,11.0325 -0.61553,1.7552 -1.11031,3.5577 -1.55502,5.3689 -0.58019,2.3561 -1.0573,4.7358 -1.33414,7.1478 m -10.24312,-70.6887 c 8.65276,-5.1451 17.14648,-9.5658 25.34863,-13.3591 -2.54752,-1.9379 -5.09505,-4.1614 -7.63669,-6.7414 -4.37644,-4.45 -14.57539,-16.3483 -24.87447,-30.5673 z m 92.20871,97.3185 -0.56546,-0.035 -0.5154,-0.3475 -0.20616,0.3034 -4.68273,-0.271 -0.54191,8.8295 -0.67443,11 6.18769,-9.1387 4.96253,-7.3275 -3.9818,-2.6771 z m 71.89623,-109.526 -8.68221,12.9909 5.6134,3.7786 8.76467,-12.9409 z m 238.6341,-31.0327 c 5.40135,-2.0057 22.21503,-9.3979 33.49778,-14.4694 v -30.6175 l -36.81987,22.9661 z m 36.49296,12.7229 c 1.36359,-6.0287 -1.68166,-7.41 -2.68006,-7.8606 -7.12718,-3.2337 -23.42841,3.2014 -29.5572,11.645 -9.07097,12.5197 19.5438,52.5792 30.93552,68.1766 -7.33924,-35.1853 -3.48997,-51.5455 0.2415,-67.4049 0.3593,-1.5197 0.71566,-3.0365 1.06024,-4.5561 m 53.31548,-61.2055 c 5.40429,-2.0056 22.21503,-9.3979 33.50072,-14.4694 v -30.6145 l -36.81987,22.969 z m 46.03514,8.1079 c -7.12718,-3.2425 -23.42252,3.1925 -29.5572,11.6421 -9.07097,12.5167 19.54969,52.5851 30.93552,68.1765 -7.33629,-35.1883 -3.48997,-51.5425 0.24444,-67.4049 0.35636,-1.5197 0.71272,-3.0335 1.0573,-4.562 1.36359,-6.0257 -1.68166,-7.404 -2.68006,-7.8517 M 850.5296,1515.6967 c 10.28729,-5.3189 20.68651,-10.4316 31.14462,-15.3942 11.64205,-5.2217 23.10151,-10.838 34.94972,-15.5855 l 17.6501,-7.3923 c 5.86078,-2.5122 11.90122,-4.5855 17.84152,-6.8974 11.92773,-4.5208 23.81423,-9.1329 35.94223,-13.094 l 13.80081,-4.7122 13.2618,0.4035 c 0.5154,-0.9719 1.0308,-1.9409 1.5462,-2.9157 l -6.1553,-0.4241 c 1.5698,-0.536 3.1366,-1.0838 4.7093,-1.5845 l 2.9804,-0.8924 c 0.701,-1.3194 1.399,-2.6447 2.0999,-3.967 l -6.0493,1.8348 c -3.0423,0.9807 -6.0522,2.0704 -9.0768,3.1071 l -2.739,0.9424 -0.6361,-0.044 -0.015,0.271 -14.73729,5.1009 c -6.01688,2.1618 -12.14272,4.0201 -18.06536,6.4322 l -17.8533,7.0152 c -5.92853,2.3974 -11.94835,4.5532 -17.79735,7.142 l -17.59119,7.6337 c -11.80404,4.9095 -23.23699,10.6584 -34.81425,16.0745 -10.41394,5.2364 -20.76603,10.6112 -30.99442,16.1981 z m 22.91302,57.7213 4.65623,-3.7815 -11.06187,-13.6653 -4.71219,3.8345 z m 56.44908,42.0475 c 12.37539,-23.7966 24.78317,-47.5725 37.22629,-71.3219 -28.76497,4.7858 -56.75537,9.3065 -83.23198,13.4827 z m -25.31918,-3.917 4.49719,-3.6549 -11.06186,-13.6624 -4.55315,3.702 z m 25.60486,31.3684 2.75074,3.3663 1.94672,-3.8787 3.95824,-7.887 -4.98314,-2.521 -2.02919,4.0053 -2.84204,-3.5106 -4.39411,3.5666 z m 22.90418,-36.6667 7.93415,-15.6886 -4.79465,-2.4386 -7.99894,15.6592 z m 22.24742,-43.9352 7.96655,-15.6887 -4.59733,-2.3502 -8.04017,15.6533 z m 22.33873,-43.9118 7.99599,-15.6709 -4.4089,-2.2678 -8.06956,15.6415 z m -126.68132,23.0102 1.4755,1.8555 c 18.07714,-2.736 36.15133,-5.5133 54.20785,-8.3759 16.54862,-2.6359 33.07957,-5.3808 49.60168,-8.1757 0.60375,-1.1456 1.20456,-2.2942 1.81125,-3.4458 -17.27901,3.0188 -34.56096,6.0081 -51.85175,8.9502 -18.40405,3.1366 -36.82282,6.1848 -55.24453,9.1917 m 122.44329,-47.3692 c 0.53307,-1.0132 1.06319,-2.0292 1.5992,-3.0365 l -121.69818,25.6697 c 40.13902,-6.9976 80.14256,-14.6932 120.09898,-22.6332 m 97.68662,12.0543 c 54.6054,-10.729 109.1254,-22.0913 163.0623,-35.9363 26.942,-6.9858 53.7779,-14.4694 80.1544,-23.4431 13.1529,-4.5768 26.2292,-9.4303 38.8903,-15.244 6.3467,-2.8803 12.5491,-6.0699 18.5513,-9.604 5.9314,-3.6078 11.7363,-7.6544 16.2924,-12.9379 -4.6651,5.1863 -10.5259,9.0886 -16.5133,12.5639 -6.0552,3.3986 -12.3018,6.4439 -18.6809,9.1887 -12.7406,5.531 -25.8817,10.1018 -39.0876,14.3899 -26.4207,8.6086 -53.2919,15.7947 -80.2751,22.4506 -53.987,13.2737 -108.4422,24.6507 -163.0653,35.0999 -27.0156,5.2836 -54.0871,10.2991 -81.1851,15.1527 -0.595,1.1957 -1.1928,2.3944 -1.7907,3.593 27.9168,-4.8889 55.7982,-9.9839 83.6473,-15.2734 m 272.1466,-116.0553 -19.1669,-0.044 c -3.1954,0.024 -6.3938,-0.094 -9.5863,0.047 l -9.5658,0.4801 c -25.5047,1.555 -51.1007,2.2088 -76.4729,5.4809 -12.7052,1.4225 -25.4547,2.5122 -38.1098,4.3087 l -37.8831,6.0492 c -12.6699,1.773 -25.1601,4.5503 -37.6828,7.142 l -18.7781,3.8963 -9.3949,1.9468 -9.2977,2.3413 -37.1497,9.5864 c -2.9481,0.8423 -5.8844,1.7406 -8.8266,2.6153 -0.6832,1.3547 -1.3577,2.7154 -2.0439,4.0731 3.92,-1.1575 7.834,-2.3296 11.7687,-3.437 l 37.0791,-9.4008 9.2653,-2.3679 9.3537,-1.982 18.7162,-3.9583 c 12.4726,-2.6359 24.9157,-5.4602 37.5444,-7.2833 l 37.7535,-6.1935 c 6.2848,-1.0986 12.6581,-1.5462 18.9813,-2.3679 l 18.9989,-2.2648 c 25.2809,-3.5931 50.8062,-4.5443 76.2521,-6.4557 l 9.551,-0.698 c 3.1866,-0.2121 6.3762,-0.1649 9.5657,-0.2651 l 19.1433,-0.3799 38.2954,-0.7657 z m -289.9764,-18.7457 -3.8463,-2.0056 -8.1609,15.6003 3.9081,2.0321 z m -31.713,-106.307 c 5.4013,-2.0056 22.2121,-9.3949 33.4978,-14.4693 v -30.6175 l -36.8199,22.966 z m 1.0337,165.6953 8.0579,-15.6444 -4.0319,-2.094 -8.1315,15.615 z m 49.2748,24.6418 -49.5781,-3.4369 c -0.321,0.642 -0.6391,1.2811 -0.9631,1.9173 z m -67.6052,32.4199 c 11.3829,-2.3296 22.7776,-4.6238 34.1487,-7.0153 v 0.1414 l 85.3701,-1.77 -70.8713,-1.4696 c 16.6693,-3.546 33.3417,-7.1096 49.9992,-10.7468 18.1214,-4.0937 36.2397,-8.211 54.3375,-12.4019 l 0.012,0.012 0.024,-0.024 c 23.2193,-5.3808 46.4063,-10.8999 69.5107,-16.7578 6.3732,-1.6198 12.7376,-3.272 19.105,-4.9183 l 61.338,6.4586 -52.862,-8.638 c 31.8692,-8.3111 63.6234,-17.0758 95.0272,-27.0156 l -30.6969,8.3553 -30.7971,7.9253 c -10.2432,2.7302 -20.5687,5.1628 -30.8472,7.728 -2.8391,0.7039 -5.687,1.3577 -8.5261,2.0557 l -2.5122,-0.4123 -0.1414,1.0514 c -6.5735,1.608 -13.1411,3.2426 -19.7352,4.7652 -20.9869,5.0244 -42.0033,9.931 -63.0403,14.7344 l 50.93,-40.8723 -58.7463,42.6188 c -17.7031,4.0201 -35.4121,7.9989 -53.1506,11.8835 -21.0576,4.7535 -42.1417,9.3626 -63.2493,13.9098 l -0.4771,-0.012 v 0.1148 c -10.8204,2.3326 -21.6437,4.6504 -32.47,6.9593 -0.5595,1.1133 -1.1162,2.2236 -1.6787,3.3398 m -7.4718,14.9052 9.6777,-6.6235 -9.0327,5.3189 c -0.2179,0.4358 -0.4329,0.8717 -0.645,1.3046 m 7.0919,-45.9644 -8.0991,15.6297 4.294,2.2089 8.0284,-15.6563 z m 51.9342,-117.6899 c -0.9424,-16.0273 2.0675,-25.4311 5.0273,-34.5875 1.1575,-3.5871 2.2501,-6.9711 3.1042,-10.7408 1.3577,-6.0287 -1.6846,-7.407 -2.686,-7.8546 -7.1301,-3.2367 -23.4254,3.1895 -29.5542,11.642 -7.1449,9.8632 7.5689,34.3519 19.0696,50.9712 1.4284,-2.6683 2.8479,-5.3454 4.2793,-8.0137 0.2532,-0.4742 0.5095,-0.9395 0.7598,-1.4166 m 108.0741,-125.6387 v -30.6175 l -5.3395,3.3309 c -6.7355,12.8113 -13.4474,25.6344 -20.124,38.4692 7.4659,-3.1719 17.7531,-7.7162 25.4635,-11.1826 m -5.1452,89.2223 c -5.4602,-26.7534 -1.4107,-35.1323 2.8539,-43.9647 1.6728,-3.4546 3.4016,-7.0271 4.5001,-11.8983 1.3636,-6.0316 -1.6787,-7.404 -2.683,-7.8605 -7.1301,-3.2337 -23.4225,3.2013 -29.5543,11.6479 -8.8206,12.1663 14.4282,39.7002 24.3591,51.4601 l 0.5242,0.6155 m -31.6747,-96.8738 0.2238,1.4932 c 0.4565,-0.8246 0.9071,-1.6551 1.3607,-2.4827 z m -16.8166,48.4414 3.3427,1.7788 8.2345,-15.5679 -3.2749,-1.7435 z m -23.1251,43.5288 3.5312,1.8643 8.1727,-15.5768 -3.4635,-1.8318 z m -22.9925,43.5878 3.7226,1.9437 8.1285,-15.5914 -3.6608,-1.9144 z m -303.50622,-204.6357 4.70925,-16.8726 -3.44579,-0.9748 -4.80054,16.8578 z m 13.39735,-47.172 4.95369,-16.796 -3.18073,-0.963 -5.05088,16.793 z m 14.10417,-46.9658 5.22758,-16.7106 -2.9245,-0.9395 -5.31594,16.7106 z m 14.87874,-46.72722 5.51031,-16.62813 -2.65649,-0.89826 -5.60162,16.61341 z m 15.35879,-46.63889 4.85061,-16.85786 -2.45034,-0.68621 -4.92718,16.78718 z m 12.92612,-47.36928 4.24392,-17.01395 -2.21179,-0.55074 -4.33521,16.96683 z m 11.59788,-47.69619 3.98474,-17.22306 -1.97323,-0.45354 -4.07309,17.18182 z m 10.8881,-47.98482 3.7403,-17.1288 -1.72878,-0.37992 -3.82571,17.09935 z m 10.29908,-47.96714 3.56065,-17.16415 -1.47551,-0.30629 -3.649,17.13764 z m 9.81608,-48.082 3.38983,-17.19949 -1.22811,-0.23561 -3.47819,17.17004 z m 9.32424,-48.17625 3.20135,-17.23188 -0.97484,-0.18555 -3.28969,17.21128 z m 8.7794,-48.28845 2.97457,-17.26693 -0.71861,-0.12075 -3.06881,17.24366 z m 8.07846,-48.40007 2.66239,-17.32555 -0.46533,-0.068 -2.75369,17.30257 z m 7.04178,-48.56471 2.11165,-17.40035 -0.215,-0.023 -2.2,17.38209 z m 348.24253,734.74222 c -5.4632,-26.7505 -1.4137,-35.1353 2.8568,-43.9647 1.6698,-3.4546 3.3986,-7.0271 4.4972,-11.8924 1.3606,-6.0287 -1.6817,-7.4099 -2.683,-7.8694 -7.1184,-3.1984 -23.4226,3.2014 -29.5543,11.648 -8.8206,12.1692 14.434,39.709 24.362,51.463 l 0.5213,0.6155 m 363.354,-720.37888 0.032,0.0298 5.257,-7.09803 c -65.3728,89.56134 -131.3906,178.66855 -199.2166,266.45663 -16.9875,21.92935 -34.1192,43.75268 -51.5779,65.3404 -17.5735,21.54648 -34.9998,43.06057 -54.6791,63.30826 l -3.7668,3.76681 -4.0819,3.65783 -2.0027,1.79064 -1.5874,1.48434 c -1.0632,0.99545 -2.1293,2.31191 -3.1984,3.44578 -4.238,4.98609 -8.1815,10.59359 -12.0514,16.18048 -7.6897,11.30337 -14.9612,23.01905 -22.0855,34.82897 -14.2337,23.62867 -27.8519,47.72557 -41.2964,71.90207 -20.8838,37.8153 -41.3406,75.878 -61.5324,114.088 13.6065,-6.0669 24.3915,-10.9411 24.3915,-10.9411 0,0 -9.7336,24.7773 11.5036,11.5036 21.2343,-13.2736 76.9795,-32.7409 78.7496,-27.4308 1.77,5.31 -7.9636,23.0072 8.8471,20.3507 16.8137,-2.6535 31.8573,30.9709 53.9752,30.0874 22.1208,-0.8865 -36.278,9.7306 -37.1615,18.5807 -0.8865,8.8501 0.8835,22.1208 0.8835,22.1208 0,0 -17.9152,10.7998 -46.6212,27.8932 l 1.4107,5.9227 -3.1218,-4.9066 c -24.9187,14.8346 -57.6213,34.2046 -93.6901,55.324 l 0.1973,0.8276 -0.4388,-0.6921 c -31.6601,18.5425 -65.8853,38.4073 -99.6835,57.7096 l 0.1326,0.5655 -0.3004,-0.4742 c -2.6506,1.5138 -5.3012,3.0246 -7.9489,4.5325 -3.7992,7.4924 -7.6043,14.9848 -11.3947,22.4801 262.7929,-84.0448 392.2279,-22.857 372.0657,21.7203 -15.4825,34.2281 -239.8122,79.5035 -439.97122,113.5078 -18.03296,36.1837 -36.00702,72.3881 -53.85443,108.6425 l -9.51568,19.3258 -13.94219,-16.7842 -72.22903,-86.9576 c -10.27551,1.5874 -20.23885,3.1189 -29.83699,4.5797 l -81.14979,296.0639 -11.59493,42.3302 -10.36976,-42.9133 c -10.39922,-43.0459 -21.05465,-86.1035 -32.0694,-128.9844 -5.51326,-21.4376 -11.12371,-42.8486 -16.97271,-64.1182 -2.67123,-9.7101 -5.41019,-19.3818 -8.25517,-28.9505 -21.01342,-4.671 -40.36874,-11.4271 -57.63302,-18.9843 -9.87204,-0.1943 -19.21984,-0.7362 -28.07581,-1.5815 l -1.22223,2.4769 77.41833,31.3007 c -31.071,-1.7671 -59.39715,-8.7441 -84.08608,-17.762 l -70.53263,143.2476 -16.66054,33.8364 -4.2233,-37.1526 -24.33551,-213.9128 c -7.71621,-10.9588 -12.85544,-22.7775 -15.93604,-34.8849 l -79.67428,68.5417 -21.07821,18.1302 1.66988,-27.372 9.67766,-159.0364 c -24.26778,24.4269 -47.64613,49.7608 -69.52276,76.367 -13.24037,15.9596 -25.82604,32.4581 -37.78145,49.4014 -12.01962,16.902 -23.22167,34.3901 -33.40059,52.4584 -10.23546,18.0359 -19.53438,36.6579 -27.02381,56.025 -7.55953,19.3259 -13.62795,39.2908 -17.28873,59.8036 3.07971,-20.6041 8.59032,-40.7987 15.63445,-60.428 6.97522,-19.6675 15.78731,-38.6635 25.57423,-57.097 9.7292,-18.4747 20.50657,-36.4046 32.12359,-53.7602 11.55046,-17.3968 23.76003,-34.3754 36.63462,-50.8239 23.71056,-30.5644 49.28655,-59.6386 76.00467,-87.6084 l 7.56895,-124.337 c -15.51783,-0.7068 -31.06216,-0.9689 -46.61239,-0.7068 -18.1219,0.2974 -36.24233,1.2693 -54.30769,2.9186 -18.05828,1.7288 -36.0453,4.1938 -53.90715,7.4099 -35.68658,6.5058 -70.89223,16.2865 -104.417105,30.3877 -16.86522,6.8445 -33.001229,15.3382 -48.770276,24.4327 -15.731543,9.21 -30.525019,19.9214 -44.796179,31.3131 13.884613,-11.8393 28.370914,-23.0632 43.870777,-32.8174 15.530787,-9.6482 31.505992,-18.7251 48.268722,-26.1645 33.329311,-15.3087 68.577671,-26.347 104.465701,-34.0985 17.96051,-3.8287 36.08801,-6.9122 54.31535,-9.2565 18.23911,-2.2648 36.5657,-3.8375 54.92999,-4.7358 15.87713,-0.7834 31.78371,-1.0219 47.69913,-0.804 l 6.66186,-109.4612 c -18.25384,-46.7125 -36.38694,-93.4486 -54.34627,-140.2613 l -26.90277,-70.85364 -13.14141,-35.55347 -6.34938,-17.85036 -3.02199,-8.98556 -1.39775,-4.52664 -0.62024,-2.28836 c -0.11398,-0.74217 -0.52335,-1.60509 -0.19085,-2.28541 -0.30482,0.68032 0.12753,1.53146 0.26565,2.27363 l 0.69034,2.25891 1.54265,4.47069 3.30649,8.87658 6.91513,17.62948 14.26999,35.08814 29.16374,69.92891 c 19.59092,46.5505 39.37034,93.0363 59.25578,139.4572 l 0.39464,0.9189 -0.0324,1.1486 -3.16012,110.3212 c 16.48089,0.5478 32.84102,1.5285 49.54573,3.5312 l -1.06613,6.9976 c 0.73333,-1.5492 1.52557,-3.1307 2.37376,-4.7417 l -10.95289,-96.2523 -67.56985,-216.95805 73.22153,215.45015 0.0766,0.2297 0.0471,0.3033 12.05437,85.2553 c 10.22545,-16.475 23.76416,-33.6568 34.32241,-43.9941 l -0.32102,-1.8555 c 0.40643,-0.032 1.55208,-0.2532 2.38555,-0.427 l 0.46238,-0.109 c 5.97859,-5.4602 10.71434,-8.2875 12.83777,-6.8032 0.59197,0.4123 1.30469,0.9454 2.09987,1.5521 1.13682,-0.5567 2.28836,-1.0897 3.36627,-1.7052 6.547,-3.7021 11.98664,-8.5556 15.4766,-14.493 1.76707,-2.9598 3.06587,-6.1936 3.88756,-9.66 0.77162,-3.4399 1.26051,-7.3333 0.97483,-10.5081 -0.71861,-7.5837 -2.9834,-16.3602 -5.31299,-24.7832 -4.83883,-17.0375 -10.7114,-34.0927 -16.72238,-51.0772 -6.04044,-16.9757 -12.33711,-33.9219 -18.70445,-50.8445 L 420.83974,953.63851 c -6.32906,-16.98155 -12.58155,-33.98372 -18.53363,-51.0978 -5.9138,-17.12292 -11.69507,-34.32241 -16.25706,-51.84881 5.51032,17.24367 12.20458,34.05146 19.03136,50.7974 6.86802,16.72533 14.0276,33.33874 21.26375,49.91681 l 43.98829,99.30649 c 7.298,16.581 14.53416,33.2121 21.55827,49.9786 6.99171,16.7901 13.85972,33.6333 19.88249,51.1273 2.92745,8.8677 5.85784,17.5175 7.47766,27.9079 0.751,5.8225 0.46238,11.056 -0.35342,16.4956 -0.86881,5.4131 -2.58287,10.8174 -5.10389,15.8212 -4.60027,9.2712 -11.80403,16.7931 -19.74407,22.4506 12.51675,13.1353 27.21289,32.2226 35.08225,54.7792 2.87149,8.2405 4.20563,17.1436 4.54432,26.1939 l 29.35988,-400.81881 -63.83249,-408.44903 1.46961,8.7202 0.056,-0.006 -1.52557,-8.7146 76.01055,407.1679 0.11192,0.59786 -0.0353,0.78635 -19.60565,449.39563 c 31.75426,-18.8105 65.11362,-45.7259 85.52623,-82.643 20.05037,39.9211 -7.08006,66.916 -7.08006,66.916 0,0 64.88684,-43.8056 86.12409,-73.7457 20.05626,19.6115 -23.59923,86.2625 -23.59923,86.2625 0,0 8.37297,-8.6704 18.82519,-18.566 4.8889,-20.9663 9.90149,-41.9061 15.06723,-62.8223 5.92852,-22.8336 11.51836,-45.7348 17.83269,-68.4652 l 9.28301,-34.128 9.75718,-33.9955 4.88006,-16.9934 5.1569,-16.9226 10.31381,-33.8247 10.8616,-33.6657 c 3.71379,-11.1944 7.13602,-22.4683 11.11193,-33.5743 l 11.59787,-33.40943 c 3.8905,-11.23857 7.75155,-22.00887 11.15611,-33.17381 6.83562,-22.30633 12.96147,-44.96902 18.83698,-67.68471 11.70979,-45.46085 22.4742,-91.21326 32.6378,-137.09232 10.14004,-45.88494 19.71462,-91.91419 28.37032,-138.11427 4.3146,-23.10769 8.39654,-46.25337 11.98664,-69.48064 3.48702,-23.22844 6.90335,-46.52492 8.02839,-70.02372 l -0.38876,8.84125 h 0.0442 L 932.35967,459 c -0.50362,23.53444 -3.31031,46.939 -6.18475,70.27671 -2.98046,23.35155 -6.45275,46.62711 -10.15477,69.85791 -7.44526,46.47397 -15.81528,92.78301 -24.74783,138.9978 -8.96494,46.21186 -18.53068,92.3059 -29.08304,138.23502 -5.29532,22.96309 -10.83509,45.87317 -17.18182,68.70961 -3.15422,11.42412 -6.92692,22.89535 -10.43161,33.97783 l -10.65838,33.52432 c -3.66373,11.1384 -6.77083,22.4624 -10.16361,33.6921 l -9.91916,33.7481 -9.36842,33.9101 -4.67979,16.9492 -4.41179,17.0316 -8.8059,34.0632 -8.3288,34.1781 c -5.68407,22.7511 -10.64071,45.6877 -15.93603,68.5241 -2.39144,10.9058 -4.74164,21.8322 -7.0565,32.7674 4.27042,-2.7301 7.67792,-4.1467 9.50095,-3.3869 4.22035,1.7641 -5.28649,30.2935 -15.83296,61.338 l 18.56603,23.3459 c 34.88198,-27.8078 77.44777,-59.1968 121.69523,-89.3696 l 49.86674,-167.9424 0.20027,-0.6685 0.38581,-0.4919 202.36796,-256.54924 -196.48066,260.21294 -42.8397,156.3093 c 82.89036,-55.6098 169.49156,-105.2792 221.07236,-117.9491 -18.5837,12.3872 8.2169,14.9583 20.607,10.5347 4.3352,-1.5462 15.0584,-6.1317 27.1658,-11.4241 24.4857,-44.3211 49.3071,-88.4655 74.7412,-132.2888 14.0011,-23.9821 28.1759,-47.8759 43.0429,-71.42505 7.4511,-11.77458 15.0437,-23.46376 23.1987,-34.91143 4.1408,-5.71059 8.2875,-11.38289 13.144,-16.86375 1.3283,-1.36948 2.4769,-2.73307 3.9553,-4.07899 l 4.1703,-3.65195 3.7344,-3.1984 3.6549,-3.51058 c 19.3877,-19.1197 37.3971,-40.35106 55.2887,-61.38215 17.8563,-21.14301 35.4151,-42.57169 52.8413,-64.1005 69.5932,-86.24779 137.4811,-173.94105 204.727,-262.09786 l -5.2894,7.06828"
         style="fill:#0a0a32;fill-opacity:1;fill-rule:nonzero;stroke:none;stroke-width:0.29451182"
         id="path64"
         inkscape:connector-curvature="0" /></g></g></svg>