<?xml version="1.0" encoding="UTF-8" standalone="no"?>
<!-- Created with Inkscape (http://www.inkscape.org/) -->

<svg
   xmlns:dc="http://purl.org/dc/elements/1.1/"
   xmlns:cc="http://creativecommons.org/ns#"
   xmlns:rdf="http://www.w3.org/1999/02/22-rdf-syntax-ns#"
   xmlns:svg="http://www.w3.org/2000/svg"
   xmlns="http://www.w3.org/2000/svg"
   xmlns:sodipodi="http://sodipodi.sourceforge.net/DTD/sodipodi-0.dtd"
   xmlns:inkscape="http://www.inkscape.org/namespaces/inkscape"
   version="1.1"
   id="svg2"
   xml:space="preserve"
   width="744.29199"
   height="655.10663"
   viewBox="0 0 744.29199 655.10663"
   sodipodi:docname="mosquito.svg"
   inkscape:version="0.92.2 2405546, 2018-03-11"><metadata
     id="metadata8"><rdf:RDF><cc:Work
         rdf:about=""><dc:format>image/svg+xml</dc:format><dc:type
           rdf:resource="http://purl.org/dc/dcmitype/StillImage" /><dc:title></dc:title></cc:Work></rdf:RDF></metadata><defs
     id="defs6" /><sodipodi:namedview
     pagecolor="#ffffff"
     bordercolor="#666666"
     borderopacity="1"
     objecttolerance="10"
     gridtolerance="10"
     guidetolerance="10"
     inkscape:pageopacity="0"
     inkscape:pageshadow="2"
     inkscape:window-width="1366"
     inkscape:window-height="716"
     id="namedview4"
     showgrid="false"
     fit-margin-top="0"
     fit-margin-left="0"
     fit-margin-right="0"
     fit-margin-bottom="0"
     inkscape:zoom="0.65893568"
     inkscape:cx="484.56887"
     inkscape:cy="347.20793"
     inkscape:window-x="0"
     inkscape:window-y="0"
     inkscape:window-maximized="1"
     inkscape:current-layer="g12" /><g
     id="g10"
     inkscape:groupmode="layer"
     inkscape:label="ink_ext_XXXXXX"
     transform="matrix(1.3333333,0,0,-1.3333333,0,716.30665)"><g
       id="g12"
       transform="scale(0.1)"><path
         d="m 5499.55,789.512 -35.97,47.718 0.67,0.52 35.76,-47.891 z m -100.85,133.539 -36.12,47.609 1.23,0.922 35.93,-47.75 z m -101.27,133.199 -36.26,47.48 1.79,1.37 36.07,-47.64 z m -101.71,132.87 -36.44,47.35 2.33,1.77 36.25,-47.48 z m -102.22,132.42 -36.68,47.23 2.89,2.25 36.47,-47.39 z m -102.87,131.98 -36.9,46.91 3.45,2.7 36.68,-47.08 z m -103.59,131.15 -37.29,46.72 3.96,3.14 37.11,-46.85 z m -104.87,130.41 -37.82,46.25 4.47,3.67 37.64,-46.43 z m -106.68,128.9 -38.78,45.38 4.92,4.23 38.63,-45.58 z m -110.33,125.47 -41.62,42.56 4.99,5.18 41.71,-43.01 z m -115.53,121.06 -34.34,49.14 6.58,4.37 33.93,-49 z m -92.5,139.8 -31.21,51.08 7.38,4.43 30.96,-51.11 z m -86.14,143.64 -30.02,51.68 8.05,4.64 29.81,-51.77 z m -83.44,145.09 -29.38,52.06 8.76,4.92 29.13,-52.17 z m -81.82,146.02 -28.93,52.32 9.41,5.16 28.7,-52.4 z m -80.7,146.63 -28.6,52.46 10.04,5.44 28.38,-52.58 z m -79.87,147.06 -28.35,52.6 10.69,5.73 28.13,-52.7 z m -574.14,793.1 c -7.48,4.07 -14.89,8.11 -22.24,12.09 57.71,-22.77 113.73,-43.48 168.32,-62.56 7.68,-14.44 15.43,-28.87 23.12,-43.31 -58.51,32.87 -115.41,64.44 -169.19,93.78 v 0.02 z m -847.64,-87.77 -18.19,14.79 37.75,46.24 18,-14.63 z m 17.85,-478.01 -14.37,-3.47 -13.99,57.86 14.7,3.47 z m 25.27,-104.01 14.39,-57.71 -13.5,-3.43 -14.71,57.69 z m 40.98,-161.38 15.17,-57.52 -12.58,-3.37 -15.5,57.48 z m -119.16,424.09 -13.28,58.04 15.59,3.47 12.97,-58.01 z m -36.55,162.63 -9.9,45.75 -1.74,8.07 -3.25,-4 -18.63,15.15 18.99,23.27 18.54,-15.07 -11.2,-13.85 11.11,2.35 6.92,-32.76 5.33,-25.42 z m -210.48,-28.42 -11.92,1.52 3.84,29.79 23.68,-2.99 -3.67,-29.81 z m -87.56,89.57 -15.55,-10.46 -16.7,24.97 19.8,13.33 16.85,-24.88 z m -265.47,-688.14 -13.47,-0.76 -3.6,58.84 13.81,0.8 z m 9.14,-164.84 -12.48,-0.73 -3.62,58.85 12.84,0.74 z m 9.15,-164.85 -11.52,-0.67 -3.6,58.87 11.85,0.67 z m 9.14,-164.84 -10.53,-0.63 -3.63,58.87 10.89,0.63 z m 9.13,-164.86 -9.55,-0.53 -3.62,58.83 9.92,0.58 z m 9.15,-164.85 -8.59,-0.49 -3.61,58.85 8.95,0.51 z m -16.89,-164.26 -7.53,1.29 9.8,58.15 7.87,-1.37 z m -28.38,-162.65 -6.56,1.13 9.79,58.16 6.9,-1.21 z m -28.37,-162.64 -5.6,0.96 9.78,58.14 5.95,-1.01 z m -28.39,-162.64 -4.64,0.81 9.8,58.14 4.98,-0.86 z m -28.37,-162.65 -3.68,0.62 9.79,58.17 4.02,-0.71 z m -28.38,-162.64 -2.71,0.47 9.8,58.14 3.05,-0.52 z m -28.38,-162.639 -1.76,0.301 9.8,58.136 2.1,-0.347 z m -28.37,-162.653 -0.79,0.141 9.79,58.16 1.12,-0.219 z m 142.63,2349.882 14.78,0.88 3.27,-58.9 -14.43,-0.84 z m -10.12,164.81 15.76,0.91 3.27,-58.87 -15.41,-0.91 z m -10.11,164.79 16.72,0.96 3.27,-58.86 -16.38,-0.97 z m -10.13,164.78 17.71,1.03 3.27,-58.87 -17.35,-1.01 z m -10.1,164.78 18.66,1.1 3.27,-58.88 -18.33,-1.07 z m -10.12,164.8 19.65,1.14 3.26,-58.86 -19.29,-1.13 z m -27.54,-340 c 4.42,-2.07 8.96,-4.29 13.46,-6.45 l 7.21,-98.39 c -6.31,39.7 -14.7,76.15 -20.67,104.84 m -391.91,-258.01 c 0.73,-10.52 4.08,-23.17 9.39,-37.18 -50.98,-7.56 -103.61,-12.52 -156.02,-15.96 l -10.2,356.36 c 36.65,-36.88 73.74,-73.35 111.66,-108.97 28.02,-26.27 56.23,-52.18 84.9,-77.71 -24.67,-43.66 -41.83,-85.98 -39.73,-116.54 m 69.17,646.5 c 0.62,-29.06 3.96,-57.7 9.47,-85.29 l -140.56,71.8 c 50.55,-53.22 103.11,-96.21 154.91,-131.23 l -5.96,-52.45 -167.26,85.43 c 52.71,-55.48 107.59,-99.96 161.54,-135.74 l -26.81,-235.64 c -23.98,20.4 -47.78,41.08 -71.3,61.92 -48.14,42.72 -95.28,86.6 -141.56,131.36 l -14.67,512.16 z m 205.24,819.29 169.06,-372.88 c -76.03,-34.97 -137.8,-73.23 -182.05,-103.55 -22.33,-12.97 -42.39,-27.03 -60.33,-42.03 z m 557.77,-368.83 c -1.65,-5.1 -3.27,-10.24 -4.95,-15.25 -0.98,-2.88 -1.98,-5.71 -2.98,-8.56 -14.36,1.17 -28.49,2.16 -42.36,2.97 z m 130.7,121.4 c 18.53,73.45 36.11,146.88 53.37,220.36 23.16,98.84 45.56,197.75 67.67,296.72 l 247.15,-832.28 c -112.2,16.91 -206.93,30.71 -276.11,40.62 l 83.71,83.73 c -53.74,10.8 -104.67,19.6 -153.49,26.89 l 136.96,53.22 c -56.96,-3.23 -111.14,-11.4 -162.14,-22.76 l -8.77,61.43 43.23,17.92 c -15.29,-0.88 -30.32,-2.26 -45.24,-3.87 l -0.46,3.17 c 4.8,18.3 9.48,36.57 14.12,54.85 m 488.55,-389.25 -3.96,-4.77 c -84.26,13.73 -168.56,27.17 -252.97,39.89 85.72,-11.11 171.34,-22.97 256.93,-35.12 m -20.18,-91.08 37.75,46.24 16.36,-13.3 -37.55,-46.39 z m -181.01,-330.33 c 18.15,-7.96 37.16,-16.39 52.98,-23.5 v -103.96 l -103.19,64.37 z m 61.04,299.47 c -4.5,-21.59 -7.71,-41 -9.97,-58.78 l -92.17,-110.99 c 21.24,57.57 75.53,133.35 102.14,169.77 m -238.28,-331.12 c -2.5,13.29 -5.01,26.56 -7.46,39.85 8.11,-6.99 16.42,-14.06 24.99,-21.29 l -16.96,-20.41 -0.57,1.85 m -60.61,525.16 6.11,6.12 c 31.36,-18.89 62.36,-37.21 93.17,-55.21 -38.03,19.11 -71.63,35.81 -99.28,49.09 m -0.88,-393.09 -17.99,-3.42 -11.15,58.47 18.33,3.41 z m 31.71,-163.42 -17.1,-3.47 -11.87,58.32 17.42,3.47 z m 336.99,296.36 -37.56,-46.4 -17.11,13.92 37.75,46.23 z m -142.71,-176.3 -17.65,14.35 37.74,46.23 17.46,-14.19 z m 74.61,13.52 c 1.23,-5.15 2.44,-10.3 3.6,-15.47 4.63,-20.46 -5.71,-25.15 -9.11,-26.67 -8.47,-3.87 -20.82,-3.61 -34.14,-0.5 l 38.37,48.2 c 0.42,-1.86 0.86,-3.7 1.28,-5.56 m 60.9,308.87 c 9.64,-5.96 19.49,-11.49 29.26,-17.24 l -0.5,-0.57 c -9.6,5.92 -19.28,11.66 -28.76,17.81 m -401.1,-56.63 10.01,-58.6 -18.92,-3.33 -10.33,58.65 z m -91.7,-254.24 8.26,64.19 21.79,-2.75 -7.93,-64.22 z m -14.89,-115.5 22.73,-2.88 -7.92,-64.22 -23.08,2.91 z m -44.82,10.53 -143.84,89.64 159.11,72.67 1.79,-40.02 z m -238.56,23.01 78.86,-121 c -3.4,-1.09 -6.85,-2.16 -10.34,-3.22 l -99.11,89.11 c 6.64,9.3 20.15,24.76 30.59,35.11 m -51.94,198.02 -17.87,-12.03 -29.49,44.12 17.6,11.84 z m 381.62,127.83 20.85,-2.62 -7.93,-64.24 -21.19,2.69 z m -328.05,-206.93 29.76,-43.95 -18.59,-12.51 -29.5,44.12 z m 27.33,141.72 c -9.22,-13.49 -23.17,-32.16 -38.25,-48.53 l -33.69,48.53 z m -84.08,225.82 256.86,-34.13 -135.97,-77.33 -183.36,22.57 z m 412.79,56.6 10.78,-71.68 4.47,-29.61 -7.91,-1.24 -0.22,-1.7 -5.93,0.75 -5.78,-0.91 -0.26,1.68 -8.26,1.03 3.85,29.8 z m -567.7,-41.95 c 0.94,0.84 1.84,1.7 2.79,2.52 7.82,6.64 15.81,13.07 23.92,19.36 14.89,11.55 30.28,22.41 46.62,31.75 49.77,29.95 104.06,51.55 159.7,66.43 -26.95,-10.21 -53.97,-20.1 -79.68,-32.93 -26.09,-11.87 -51.11,-25.92 -75.14,-41.36 -3.36,-2.17 -6.64,-4.44 -9.95,-6.67 -21.73,-14.65 -42.56,-30.66 -61.95,-48.19 z m -97.25,-906.25 87.73,66.38 23.95,-31.43 -27.44,-46.2 z m 12.26,195.51 c 6.81,-6.81 21.6,-21.13 35.48,-34.5 l -137.41,-109.65 -45.59,30.78 c 54.3,42.52 130.15,101.34 147.52,113.37 m 36.79,642.87 c -35.26,-44.5 -61.21,-96.45 -74.39,-151.74 -5.27,-22.8 -8.14,-46.22 -8,-69.67 0.04,-4.99 0.03,-9.96 0.35,-14.93 1.15,-16.46 3.83,-33.2 9.27,-48.96 3.86,-11.17 9.07,-21.86 16.28,-31.52 -8.77,9.51 -15.13,21.06 -19.85,33.17 -0.55,1.43 -1.19,2.84 -1.71,4.29 -4.82,13.71 -8.13,28 -9.82,42.49 -0.68,6.28 -1.01,12.57 -1.21,18.87 -0.74,22.84 1.42,45.75 5.69,68.21 11.61,57.35 38.53,110.89 73.91,157.17 13.65,17.47 28.72,33.77 44.82,48.91 l 1.08,-14.8 c -12.99,-13.06 -25.25,-26.81 -36.42,-41.49 m 19.91,-217.76 32.87,36.01 3.11,-42.51 c -11.17,2.36 -23.09,4.58 -35.98,6.5 m -55.44,-178.42 c -0.73,16.01 0.93,50.05 16.56,52.02 10.86,1.34 46.71,-4.5 84.51,-11.75 l 3.71,-50.8 c -29.7,-6.25 -65.49,-5.97 -104.78,10.53 m 8.05,-138.34 -109.62,-59.22 99.07,82.93 z m -141.33,321.68 c -1.31,12 -1.51,24.08 -1.14,36.15 0.53,17.09 2.42,34.14 5.61,50.93 11.62,57.35 38.52,110.89 73.92,157.18 17.96,23.01 38.4,44 60.46,62.99 22.16,18.82 45.29,36.71 70.53,51.11 49.79,29.96 104.07,51.56 159.71,66.45 -26.95,-10.23 -53.97,-20.11 -79.67,-32.93 -26.1,-11.88 -51.14,-25.93 -75.15,-41.37 -47.87,-30.98 -91.94,-68.38 -126.41,-113.65 -35.25,-44.5 -61.21,-96.44 -74.41,-151.73 -3.97,-17.26 -6.48,-34.89 -7.51,-52.6 -0.62,-10.65 -0.83,-21.33 -0.12,-32.01 0.64,-9.23 1.8,-18.54 3.61,-27.72 3.69,-18.84 10.26,-37.11 21.94,-52.76 -9.81,10.62 -16.73,23.79 -21.56,37.46 -2.09,5.96 -3.77,12.08 -5.28,18.23 -1.97,8 -3.59,16.08 -4.53,24.27 m -34.78,-240.02 c 29.38,-17.47 58.22,-32.48 86.07,-45.36 -8.65,-6.58 -17.3,-14.13 -25.93,-22.89 -14.86,-15.11 -49.49,-55.51 -84.46,-103.79 z m 313.09,330.44 -1.92,-0.12 -1.75,-1.18 -0.7,1.03 -15.9,-0.92 -1.84,29.98 -2.29,37.35 21.01,-31.03 16.85,-24.88 -13.52,-9.09 z m 244.12,-371.89 -29.48,44.11 19.06,12.83 29.76,-43.94 z m 810.27,-105.37 c 18.34,-6.81 75.43,-31.91 113.74,-49.13 V 3404.02 L 2867.36,3482 Z m 123.91,43.2 c 4.63,-20.47 -5.71,-25.16 -9.1,-26.69 -24.2,-10.98 -79.55,10.87 -100.36,39.54 -30.8,42.51 66.36,178.53 105.04,231.49 -24.92,-119.47 -11.85,-175.02 0.82,-228.87 1.22,-5.16 2.43,-10.31 3.6,-15.47 m 181.03,-207.82 c 18.35,-6.81 75.43,-31.91 113.75,-49.13 v -103.95 l -125.02,77.99 z m 156.31,27.53 c -24.2,-11.01 -79.53,10.84 -100.36,39.53 -30.8,42.5 66.38,178.55 105.04,231.49 -24.91,-119.48 -11.85,-175.01 0.83,-228.87 1.21,-5.16 2.42,-10.3 3.59,-15.49 4.63,-20.46 -5.71,-25.14 -9.1,-26.66 m -451.96,626.94 c 34.93,-18.06 70.24,-35.42 105.75,-52.27 39.53,-17.73 78.44,-36.8 118.67,-52.92 l 59.93,-25.1 c 19.9,-8.53 40.41,-15.57 60.58,-23.42 40.5,-15.35 80.86,-31.01 122.04,-44.46 l 46.86,-16 45.03,1.37 c 1.75,-3.3 3.5,-6.59 5.25,-9.9 l -20.9,-1.44 c 5.33,-1.82 10.65,-3.68 15.99,-5.38 l 10.12,-3.03 c 2.38,-4.48 4.75,-8.98 7.13,-13.47 l -20.54,6.23 c -10.33,3.33 -20.55,7.03 -30.82,10.55 l -9.3,3.2 -2.16,-0.15 -0.05,0.92 -50.04,17.32 c -20.43,7.34 -41.23,13.65 -61.34,21.84 l -60.62,23.82 c -20.13,8.14 -40.57,15.46 -60.43,24.25 l -59.73,25.92 c -40.08,16.67 -78.9,36.19 -118.21,54.58 -35.36,17.78 -70.51,36.03 -105.24,55 z m 77.8,195.99 15.81,-12.84 -37.56,-46.4 -16,13.02 z m 191.67,142.77 c 42.02,-80.8 84.15,-161.53 126.4,-242.17 -97.67,16.25 -192.71,31.6 -282.61,45.78 z m -85.97,-13.3 15.27,-12.41 -37.56,-46.39 -15.46,12.57 z m 86.94,106.51 9.34,11.43 6.61,-13.17 13.44,-26.78 -16.92,-8.56 -6.89,13.6 -9.65,-11.92 -14.92,12.11 z m 77.77,-124.5 26.94,-53.27 -16.28,-8.28 -27.16,53.17 z m 75.54,-149.18 27.05,-53.27 -15.61,-7.98 -27.3,53.15 z m 75.85,-149.1 27.15,-53.21 -14.97,-7.7 -27.4,53.11 z m -430.14,78.13 5.01,6.3 c 61.38,-9.29 122.75,-18.72 184.06,-28.44 56.19,-8.95 112.32,-18.27 168.42,-27.76 2.05,-3.89 4.09,-7.79 6.15,-11.7 -58.67,10.25 -117.35,20.4 -176.06,30.39 -62.49,10.65 -125.03,21 -187.58,31.21 m 415.75,-160.84 c 1.81,-3.44 3.61,-6.89 5.43,-10.31 l -413.22,87.16 c 136.29,-23.76 272.12,-49.89 407.79,-76.85 m 331.69,40.93 c 185.41,-36.43 370.53,-75.01 553.67,-122.02 91.48,-23.72 182.6,-49.13 272.16,-79.6 44.66,-15.54 89.06,-32.02 132.05,-51.76 21.55,-9.78 42.61,-20.61 62.99,-32.61 20.14,-12.25 39.85,-25.99 55.32,-43.93 -15.84,17.61 -35.74,30.86 -56.07,42.66 -20.56,11.54 -41.77,21.88 -63.43,31.2 -43.26,18.78 -87.88,34.3 -132.72,48.86 -89.71,29.23 -180.95,53.63 -272.57,76.23 -183.31,45.07 -368.21,83.7 -553.68,119.18 -91.73,17.94 -183.65,34.97 -275.66,51.45 -2.02,4.06 -4.05,8.13 -6.08,12.2 94.79,-16.6 189.46,-33.9 284.02,-51.86 m 924.06,-394.06 -65.08,-0.15 c -10.85,0.08 -21.71,-0.32 -32.55,0.16 l -32.48,1.63 c -86.6,5.28 -173.51,7.5 -259.66,18.61 -43.14,4.83 -86.43,8.53 -129.4,14.63 l -128.63,20.54 c -43.02,6.02 -85.43,15.45 -127.95,24.25 l -63.76,13.23 -31.9,6.61 -31.57,7.95 -126.14,32.55 c -10.01,2.86 -19.98,5.91 -29.97,8.88 -2.32,4.6 -4.61,9.22 -6.94,13.83 13.31,-3.93 26.6,-7.91 39.96,-11.67 l 125.9,-31.92 31.46,-8.04 31.76,-6.73 63.55,-13.44 c 42.35,-8.95 84.6,-18.54 127.48,-24.73 l 128.19,-21.03 c 21.34,-3.73 42.98,-5.25 64.45,-8.04 l 64.51,-7.69 c 85.84,-12.2 172.51,-15.43 258.91,-21.92 l 32.43,-2.37 c 10.82,-0.72 21.65,-0.56 32.48,-0.9 l 65,-1.29 130.03,-2.6 z m -984.6,-63.65 -13.06,-6.81 -27.71,52.97 13.27,6.9 z M 3536.61,3195.7 c 18.34,-6.81 75.42,-31.9 113.74,-49.13 v -103.96 l -125.02,77.98 z m 3.51,562.61 27.36,-53.12 -13.69,-7.11 -27.61,53.02 z m 167.31,83.67 -168.34,-11.67 c -1.09,2.18 -2.17,4.35 -3.27,6.51 z m -229.55,110.08 c 38.65,-7.91 77.34,-15.7 115.95,-23.82 v 0.48 l 289.87,-6.01 -240.64,-4.99 c 56.6,-12.04 113.21,-24.14 169.77,-36.49 61.53,-13.9 123.05,-27.88 184.5,-42.11 l 0.04,0.04 0.08,-0.08 c 78.84,-18.27 157.57,-37.01 236.02,-56.9 21.64,-5.5 43.25,-11.11 64.87,-16.7 l 208.27,21.93 -179.49,-29.33 c 108.21,-28.22 216.03,-57.98 322.66,-91.73 l -104.23,28.37 -104.57,26.91 c -34.78,9.27 -69.84,17.53 -104.74,26.24 -9.64,2.39 -19.31,4.61 -28.95,6.98 l -8.53,-1.4 -0.48,3.57 c -22.32,5.46 -44.62,11.01 -67.01,16.18 -71.26,17.06 -142.62,33.72 -214.05,50.03 l 172.93,-138.78 -199.47,144.71 c -60.11,13.65 -120.24,27.16 -180.47,40.35 -71.5,16.14 -143.09,31.79 -214.76,47.23 l -1.62,-0.04 v 0.39 c -36.74,7.92 -73.49,15.79 -110.25,23.63 -1.9,3.78 -3.79,7.55 -5.7,11.34 m -25.37,50.61 32.86,-22.49 -30.67,18.06 c -0.74,1.48 -1.47,2.96 -2.19,4.43 m 24.08,-156.07 -27.5,53.07 14.58,7.5 27.26,-53.16 z m 176.34,-399.61 c -3.2,-54.42 7.02,-86.35 17.07,-117.44 3.93,-12.18 7.64,-23.67 10.54,-36.47 4.61,-20.47 -5.72,-25.15 -9.12,-26.67 -24.21,-10.99 -79.54,10.83 -100.35,39.53 -24.26,33.49 25.7,116.64 64.75,173.07 4.85,-9.06 9.67,-18.15 14.53,-27.21 0.86,-1.61 1.73,-3.19 2.58,-4.81 m 366.96,-426.6 v -103.96 l -18.13,11.31 c -22.87,43.5 -45.66,87.04 -68.33,130.62 25.35,-10.77 60.28,-26.2 86.46,-37.97 m -17.47,302.95 c -18.54,-90.84 -4.79,-119.29 9.69,-149.28 5.68,-11.73 11.55,-23.86 15.28,-40.4 4.63,-20.48 -5.7,-25.14 -9.11,-26.69 -24.21,-10.98 -79.53,10.87 -100.35,39.55 -29.95,41.31 48.99,134.8 82.71,174.73 l 1.78,2.09 m -107.55,-328.93 0.76,5.07 c 1.55,-2.8 3.08,-5.62 4.62,-8.43 z m -57.1,164.48 11.35,6.04 27.96,-52.86 -11.12,-5.92 z m -78.52,147.8 11.99,6.33 27.75,-52.89 -11.76,-6.22 z m -78.07,148 12.64,6.6 27.6,-52.94 -12.43,-6.5 z m -1030.54,-694.83 15.99,-57.29 -11.7,-3.31 -16.3,57.24 z m 45.49,-160.17 16.82,-57.03 -10.8,-3.27 -17.15,57.02 z m 47.89,-159.47 17.75,-56.74 -9.93,-3.19 -18.05,56.74 z m 50.52,-158.66 18.71,-56.46 -9.02,-3.05 -19.02,56.41 z m 52.15,-158.36 16.47,-57.24 -8.32,-2.33 -16.73,57 z m 43.89,-160.84 14.41,-57.77 -7.51,-1.87 -14.72,57.61 z m 39.38,-161.95 13.53,-58.48 -6.7,-1.54 -13.83,58.34 z m 36.97,-162.93 12.7,-58.16 -5.87,-1.29 -12.99,58.06 z m 34.97,-162.87 12.09,-58.28 -5.01,-1.04 -12.39,58.19 z m 33.33,-163.26 11.51,-58.4 -4.17,-0.8 -11.81,58.3 z m 31.66,-163.58 10.87,-58.51 -3.31,-0.63 -11.17,58.44 z m 29.81,-163.961 10.1,-58.629 -2.44,-0.41 -10.42,58.55 z m 27.43,-164.34 9.04,-58.828 -1.58,-0.231 -9.35,58.75 z m 23.91,-164.899 7.17,-59.082 -0.73,-0.078 -7.47,59.02 z m 1182.44,2494.78 c -18.55,-90.83 -4.8,-119.3 9.7,-149.28 5.67,-11.73 11.54,-23.86 15.27,-40.38 4.62,-20.47 -5.71,-25.16 -9.11,-26.72 -24.17,-10.86 -79.53,10.87 -100.35,39.55 -29.95,41.32 49.01,134.83 82.72,174.74 l 1.77,2.09 m 1233.75,-2446.01 0.11,0.101 17.85,-24.101 c -221.97,304.101 -446.13,606.66 -676.43,904.74 -57.68,74.46 -115.85,148.56 -175.13,221.86 -59.67,73.16 -118.84,146.21 -185.66,214.96 l -12.79,12.79 -13.86,12.42 -6.8,6.08 -5.39,5.04 c -3.61,3.38 -7.23,7.85 -10.86,11.7 -14.39,16.93 -27.78,35.97 -40.92,54.94 -26.11,38.38 -50.8,78.16 -74.99,118.26 -48.33,80.23 -94.57,162.05 -140.22,244.14 -70.91,128.4 -140.37,257.64 -208.93,387.38 46.2,-20.6 82.82,-37.15 82.82,-37.15 0,0 -33.05,84.13 39.06,39.06 72.1,-45.07 261.38,-111.17 267.39,-93.14 6.01,18.03 -27.04,78.12 30.04,69.1 57.09,-9.01 108.17,105.16 183.27,102.16 75.11,-3.01 -123.18,33.04 -126.18,63.09 -3.01,30.05 3,75.11 3,75.11 0,0 -60.83,36.67 -158.3,94.71 l 4.79,20.11 -10.6,-16.66 c -84.61,50.37 -195.65,116.14 -318.12,187.85 l 0.67,2.81 -1.49,-2.35 c -107.5,62.96 -223.71,130.41 -338.47,195.95 l 0.45,1.92 -1.02,-1.61 c -9,5.14 -18,10.27 -26.99,15.39 -12.9,25.44 -25.82,50.88 -38.69,76.33 892.3,-285.37 1331.79,-77.61 1263.33,73.75 -52.57,116.22 -814.27,269.95 -1493.9,385.41 -61.23,122.86 -122.26,245.79 -182.86,368.89 l -32.31,65.62 -47.34,-56.99 -245.25,-295.26 c -34.89,5.39 -68.72,10.59 -101.31,15.55 l -275.54,1005.27 -39.37,143.73 -35.21,-145.71 c -35.31,-146.16 -71.49,-292.36 -108.89,-437.96 -18.72,-72.79 -37.77,-145.49 -57.63,-217.71 -9.07,-32.97 -18.37,-65.81 -28.03,-98.3 -71.35,-15.86 -137.07,-38.8 -195.69,-64.46 -33.52,-0.66 -65.26,-2.5 -95.33,-5.37 l -4.15,8.41 262.87,106.28 c -105.5,-6 -201.68,-29.69 -285.51,-60.31 l -239.49,486.39 -56.57,114.89 -14.34,-126.15 -82.63,-726.33 c -26.2,-37.21 -43.65,-77.34 -54.11,-118.45 l -270.53,232.73 -71.57,61.56 5.67,-92.94 32.86,-540 c -82.4,82.94 -161.78,168.96 -236.061,259.3 -44.957,54.19 -87.691,110.21 -128.285,167.74 -40.812,57.39 -78.848,116.77 -113.41,178.12 -34.754,61.24 -66.328,124.47 -91.758,190.23 -25.668,65.62 -46.273,133.41 -58.703,203.06 10.457,-69.96 29.168,-138.53 53.086,-205.18 23.684,-66.78 53.605,-131.28 86.836,-193.87 33.035,-62.73 69.629,-123.61 109.074,-182.54 39.219,-59.07 80.676,-116.72 124.391,-172.57 80.508,-103.78 167.35,-202.5 258.07,-297.47 l 25.7,-422.18 c -52.69,-2.4 -105.47,-3.29 -158.27,-2.4 -61.532,1.01 -123.059,4.31 -184.399,9.91 -61.316,5.87 -122.39,14.24 -183.039,25.16 -121.172,22.09 -240.711,55.3 -354.543,103.18 -57.265,23.24 -112.054,52.08 -165.597,82.96 C 98.6875,3523.59 48.457,3559.96 0,3598.64 c 47.1445,-40.2 96.332,-78.31 148.961,-111.43 52.734,-32.76 106.977,-63.58 163.894,-88.84 113.168,-51.98 232.852,-89.46 354.708,-115.78 60.984,-13 122.535,-23.47 184.425,-31.43 61.93,-7.69 124.157,-13.03 186.512,-16.08 53.91,-2.66 107.92,-3.47 161.96,-2.73 l 22.62,-371.67 c -61.98,-158.61 -123.55,-317.3 -184.53,-476.25 l -91.347,-240.58 -44.621,-120.72 -21.559,-60.61 -10.261,-30.51 -4.746,-15.37 -2.106,-7.77 c -0.387,-2.52 -1.777,-5.45 -0.648,-7.76 -1.035,2.31 0.433,5.2 0.902,7.72 l 2.344,7.67 5.238,15.18 11.227,30.14 23.48,59.86 48.453,119.14 99.024,237.44 c 66.52,158.06 133.68,315.9 201.2,473.52 l 1.34,3.12 -0.11,3.9 -10.73,374.59 c 55.96,1.86 111.51,5.19 168.23,11.99 l -3.62,23.76 c 2.49,-5.26 5.18,-10.63 8.06,-16.1 l -37.19,-326.82 -229.43,-736.67 248.62,731.55 0.26,0.78 0.16,1.03 40.93,289.48 c 34.72,-55.94 80.69,-114.28 116.54,-149.38 l -1.09,-6.3 c 1.38,-0.11 5.27,-0.86 8.1,-1.45 l 1.57,-0.37 c 20.3,-18.54 36.38,-28.14 43.59,-23.1 2.01,1.4 4.43,3.21 7.13,5.27 3.86,-1.89 7.77,-3.7 11.43,-5.79 22.23,-12.57 40.7,-29.05 52.55,-49.21 6,-10.05 10.41,-21.03 13.2,-32.8 2.62,-11.68 4.28,-24.9 3.31,-35.68 -2.44,-25.75 -10.13,-55.55 -18.04,-84.15 -16.43,-57.85 -36.37,-115.76 -56.78,-173.43 -20.51,-57.64 -41.89,-115.18 -63.51,-172.64 l -130.71,-344.84 c -21.49,-57.66 -42.72,-115.39 -62.93,-173.5 -20.08,-58.14 -39.71,-116.54 -55.2,-176.05 18.71,58.55 41.44,115.62 64.62,172.48 23.32,56.79 47.63,113.2 72.2,169.49 l 149.36,337.19 c 24.78,56.3 49.35,112.77 73.2,169.7 23.74,57.01 47.06,114.2 67.51,173.6 9.94,30.11 19.89,59.48 25.39,94.76 2.55,19.77 1.57,37.54 -1.2,56.01 -2.95,18.38 -8.77,36.73 -17.33,53.72 -15.62,31.48 -40.08,57.02 -67.04,76.23 42.5,44.6 92.4,109.41 119.12,186 9.75,27.98 14.28,58.21 15.43,88.94 l 99.69,-1360.96 -216.74,-1386.868 4.99,29.609 0.19,-0.019 -5.18,-29.59 258.09,1382.518 0.38,2.03 -0.12,2.67 -66.57,1525.9 c 107.82,-63.87 221.09,-155.26 290.4,-280.61 68.08,135.55 -24.04,227.21 -24.04,227.21 0,0 220.32,-148.74 292.43,-250.4 68.1,66.59 -80.13,292.9 -80.13,292.9 0,0 28.43,-29.44 63.92,-63.04 16.6,-71.19 33.62,-142.29 51.16,-213.31 20.13,-77.53 39.11,-155.29 60.55,-232.47 l 31.52,-115.88 33.13,-115.43 16.57,-57.7 17.51,-57.46 35.02,-114.85 36.88,-114.31 c 12.61,-38.01 24.23,-76.29 37.73,-114 l 39.38,-113.44 c 13.21,-38.16 26.32,-74.73 37.88,-112.64 23.21,-75.74 44.01,-152.69 63.96,-229.82 39.76,-154.36 76.31,-309.71 110.82,-465.49 34.43,-155.8 66.94,-312.09 96.33,-468.96 14.65,-78.461 28.51,-157.051 40.7,-235.918 11.84,-78.871 23.44,-157.973 27.26,-237.762 l -1.32,30.02 h 0.15 l 1.17,-30.02 c -1.71,79.91 -11.24,159.379 -21,238.621 -10.12,79.289 -21.91,158.32 -34.48,237.199 -25.28,157.8 -53.7,315.04 -84.03,471.96 -30.44,156.91 -62.92,313.42 -98.75,469.37 -17.98,77.97 -36.79,155.76 -58.34,233.3 -10.71,38.79 -23.52,77.74 -35.42,115.37 l -36.19,113.83 c -12.44,37.82 -22.99,76.27 -34.51,114.4 l -33.68,114.59 -31.81,115.14 -15.89,57.55 -14.98,57.83 -29.9,115.66 -28.28,116.05 c -19.3,77.25 -36.13,155.13 -54.11,232.67 -8.12,37.03 -16.1,74.13 -23.96,111.26 14.5,-9.27 26.07,-14.08 32.26,-11.5 14.33,5.99 -17.95,102.86 -53.76,208.27 l 63.04,79.27 c 118.44,-94.42 262.97,-201 413.21,-303.45 l 169.32,-570.24 0.68,-2.27 1.31,-1.67 687.13,-871.1 -667.14,883.54 -145.46,530.74 c 281.45,-188.82 575.5,-357.47 750.64,-400.49 -63.1,42.06 27.9,50.79 69.97,35.77 14.72,-5.25 51.13,-20.82 92.24,-38.79 83.14,-150.49 167.42,-300.38 253.78,-449.18 47.54,-81.43 95.67,-162.56 146.15,-242.52 25.3,-39.98 51.08,-79.67 78.77,-118.54 14.06,-19.39 28.14,-38.65 44.63,-57.26 4.51,-4.65 8.41,-9.28 13.43,-13.85 l 14.16,-12.4 12.68,-10.86 12.41,-11.92 c 65.83,-64.92 126.98,-137.01 187.73,-208.42 60.63,-71.79 120.25,-144.55 179.42,-217.65 236.3,-292.85 466.81,-590.608 695.14,-889.94 l -17.96,24"
         style="fill:#0a0a32;fill-opacity:1;fill-rule:nonzero;stroke:none"
         id="path64"
         inkscape:connector-curvature="0" /></g></g></svg>